<svg xmlns="http://www.w3.org/2000/svg" xmlns:xlink="http://www.w3.org/1999/xlink" contentStyleType="text/css" height="475.7px" preserveAspectRatio="none" style="width:706px;height:475px;background:#FFFFFF;" version="1.1" viewBox="0 0 706 475" width="706.45px" zoomAndPan="magnify"><defs/><g><!--cluster Shared--><g id="cluster_Shared"><rect fill="none" height="466.47" rx="1.775" ry="1.775" style="stroke:#000000;stroke-width:1.065;" width="499.84" x="4.97" y="4.97"/><text fill="#000000" font-family="sans-serif" font-size="9.94" font-weight="bold" lengthAdjust="spacing" textLength="33.698" x="238.041" y="17.1163">Shared</text></g><!--cluster Infrastructure--><g id="cluster_Infrastructure"><rect fill="none" height="178.92" rx="1.775" ry="1.775" style="stroke:#000000;stroke-width:1.065;" width="274.06" x="213.71" y="39.05"/><text fill="#000000" font-family="sans-serif" font-size="9.94" font-weight="bold" lengthAdjust="spacing" textLength="64.6246" x="318.4277" y="51.1963">Infrastructure</text></g><!--cluster Persistence--><g id="cluster_Persistence"><rect fill="none" height="129.93" rx="1.775" ry="1.775" style="stroke:#000000;stroke-width:1.065;" width="239.98" x="230.75" y="71"/><text fill="#000000" font-family="sans-serif" font-size="9.94" font-weight="bold" lengthAdjust="spacing" textLength="55.8106" x="322.8347" y="83.1463">Persistence</text></g><!--cluster jpa--><g id="cluster_jpa"><rect fill="none" height="80.94" rx="1.775" ry="1.775" style="stroke:#000000;stroke-width:1.065;" width="205.9" x="247.79" y="102.95"/><text fill="#000000" font-family="sans-serif" font-size="9.94" font-weight="bold" lengthAdjust="spacing" textLength="14.3616" x="343.5592" y="115.0963">jpa</text></g><!--cluster Domain--><g id="cluster_Domain"><rect fill="none" height="417.48" rx="1.775" ry="1.775" style="stroke:#000000;stroke-width:1.065;" width="174.66" x="22.01" y="36.92"/><text fill="#000000" font-family="sans-serif" font-size="9.94" font-weight="bold" lengthAdjust="spacing" textLength="36.4499" x="91.115" y="49.0663">Domain</text></g><!--cluster Model--><g id="cluster_Model"><rect fill="none" height="368.49" rx="1.775" ry="1.775" style="stroke:#000000;stroke-width:1.065;" width="140.58" x="39.05" y="68.87"/><text fill="#000000" font-family="sans-serif" font-size="9.94" font-weight="bold" lengthAdjust="spacing" textLength="28.7134" x="94.9833" y="81.0163">Model</text></g><!--cluster Entity--><g id="cluster_Entity"><rect fill="none" height="85.2" rx="1.775" ry="1.775" style="stroke:#000000;stroke-width:1.065;" width="106.5" x="56.09" y="100.82"/><text fill="#000000" font-family="sans-serif" font-size="9.94" font-weight="bold" lengthAdjust="spacing" textLength="27.6117" x="95.5342" y="112.9663">Entity</text></g><!--cluster ValueObjects--><g id="cluster_ValueObjects"><rect fill="none" height="107.21" rx="1.775" ry="1.775" style="stroke:#000000;stroke-width:1.065;" width="99.4" x="59.64" y="313.11"/><text fill="#000000" font-family="sans-serif" font-size="9.94" font-weight="bold" lengthAdjust="spacing" textLength="62.9792" x="77.8504" y="325.2563">ValueObjects</text></g><!--cluster org--><g id="cluster_org"><rect fill="none" height="218.68" rx="1.775" ry="1.775" style="stroke:#000000;stroke-width:1.065;" width="180.34" x="521.85" y="235.01"/><text fill="#000000" font-family="sans-serif" font-size="9.94" font-weight="bold" lengthAdjust="spacing" textLength="16.0117" x="604.0141" y="247.1563">org</text></g><!--cluster hibernate--><g id="cluster_hibernate"><rect fill="none" height="169.69" rx="1.775" ry="1.775" style="stroke:#000000;stroke-width:1.065;" width="146.26" x="538.89" y="266.96"/><text fill="#000000" font-family="sans-serif" font-size="9.94" font-weight="bold" lengthAdjust="spacing" textLength="44.7397" x="589.6501" y="279.1063">hibernate</text></g><!--cluster boot--><g id="cluster_boot"><rect fill="none" height="120.7" rx="1.775" ry="1.775" style="stroke:#000000;stroke-width:1.065;" width="112.18" x="555.93" y="298.91"/><text fill="#000000" font-family="sans-serif" font-size="9.94" font-weight="bold" lengthAdjust="spacing" textLength="21.5253" x="601.2573" y="311.0563">boot</text></g><!--cluster model--><g id="cluster_model"><rect fill="none" height="71.71" rx="1.775" ry="1.775" style="stroke:#000000;stroke-width:1.065;" width="78.1" x="572.97" y="330.86"/><text fill="#000000" font-family="sans-serif" font-size="9.94" font-weight="bold" lengthAdjust="spacing" textLength="29.2716" x="597.3842" y="343.0063">model</text></g><!--class SnakeCasePhysicalNamingStrategy--><g id="elem_SnakeCasePhysicalNamingStrategy"><rect codeLine="7" fill="#F1F1F1" height="43.0132" id="SnakeCasePhysicalNamingStrategy" rx="1.775" ry="1.775" style="stroke:#181818;stroke-width:0.355;" width="182.391" x="259.505" y="129.22"/><ellipse cx="270.155" cy="145.0466" fill="#ADD1B2" rx="7.81" ry="7.81" style="stroke:#181818;stroke-width:0.71;"/><path d="M272.1186,142.1179 Q272.2295,141.9626 272.3627,141.8849 Q272.4958,141.8072 272.6511,141.8072 Q272.9173,141.8072 273.0838,141.9958 Q273.2502,142.1733 273.2502,142.606 L273.2502,143.6377 Q273.2502,144.0704 273.0838,144.259 Q272.9173,144.4476 272.6511,144.4476 Q272.407,144.4476 272.2628,144.3033 Q272.1186,144.1702 272.0409,143.8041 Q272.0077,143.549 271.8745,143.4158 Q271.6416,143.1496 271.2089,142.9943 Q270.7763,142.839 270.3325,142.839 Q269.7889,142.839 269.3341,143.0719 Q268.8903,143.3049 268.5353,143.8374 Q268.1914,144.3699 268.1914,145.1021 L268.1914,145.8787 Q268.1914,146.7551 268.8237,147.343 Q269.4561,147.9199 270.5877,147.9199 Q271.2533,147.9199 271.7192,147.7424 Q271.9966,147.6315 272.2961,147.3208 Q272.4847,147.1322 272.5845,147.0768 Q272.6955,147.0213 272.8397,147.0213 Q273.0727,147.0213 273.2502,147.2099 Q273.4387,147.3874 273.4387,147.6315 Q273.4387,147.8755 273.1947,148.164 Q272.8397,148.5744 272.2739,148.8074 Q271.5084,149.1291 270.5877,149.1291 Q269.5116,149.1291 268.6573,148.6854 Q267.9584,148.3304 267.4703,147.576 Q266.9822,146.8105 266.9822,145.9008 L266.9822,145.0799 Q266.9822,144.1369 267.4148,143.3271 Q267.8586,142.5062 268.6352,142.0735 Q269.4117,141.6297 270.2881,141.6297 Q270.8095,141.6297 271.2644,141.7518 Q271.7303,141.8627 272.1186,142.1179 Z " fill="#000000"/><text fill="#000000" font-family="sans-serif" font-size="8.52" font-style="italic" lengthAdjust="spacing" textLength="30.781" x="344.54" y="141.9639">&#171;Class&#187;</text><text fill="#000000" font-family="sans-serif" font-size="9.94" lengthAdjust="spacing" textLength="159.671" x="280.095" y="154.8285">SnakeCasePhysicalNamingStrategy</text><line style="stroke:#181818;stroke-width:0.355;" x1="260.215" x2="441.186" y1="160.8732" y2="160.8732"/><line style="stroke:#181818;stroke-width:0.355;" x1="260.215" x2="441.186" y1="166.5532" y2="166.5532"/></g><!--class Money--><g id="elem_Money"><rect codeLine="14" fill="#F1F1F1" height="47.301" id="Money" rx="1.775" ry="1.775" style="stroke:#181818;stroke-width:0.355;" width="83.6524" x="67.45" y="127.09"/><ellipse cx="92.094" cy="138.45" fill="#ADD1B2" rx="7.81" ry="7.81" style="stroke:#181818;stroke-width:0.71;"/><path d="M94.0576,135.5212 Q94.1686,135.3659 94.3017,135.2883 Q94.4348,135.2106 94.5901,135.2106 Q94.8564,135.2106 95.0228,135.3992 Q95.1892,135.5767 95.1892,136.0094 L95.1892,137.0411 Q95.1892,137.4738 95.0228,137.6623 Q94.8564,137.8509 94.5901,137.8509 Q94.3461,137.8509 94.2019,137.7067 Q94.0576,137.5736 93.98,137.2075 Q93.9467,136.9523 93.8136,136.8192 Q93.5806,136.553 93.1479,136.3977 Q92.7153,136.2423 92.2715,136.2423 Q91.7279,136.2423 91.2731,136.4753 Q90.8294,136.7083 90.4744,137.2408 Q90.1304,137.7733 90.1304,138.5055 L90.1304,139.282 Q90.1304,140.1584 90.7628,140.7464 Q91.3951,141.3233 92.5267,141.3233 Q93.1923,141.3233 93.6583,141.1458 Q93.9356,141.0348 94.2351,140.7242 Q94.4237,140.5356 94.5236,140.4802 Q94.6345,140.4247 94.7787,140.4247 Q95.0117,140.4247 95.1892,140.6133 Q95.3778,140.7908 95.3778,141.0348 Q95.3778,141.2789 95.1337,141.5673 Q94.7787,141.9778 94.2129,142.2108 Q93.4475,142.5325 92.5267,142.5325 Q91.4506,142.5325 90.5964,142.0888 Q89.8975,141.7338 89.4094,140.9794 Q88.9212,140.2139 88.9212,139.3042 L88.9212,138.4833 Q88.9212,137.5403 89.3539,136.7305 Q89.7976,135.9095 90.5742,135.4769 Q91.3508,135.0331 92.2272,135.0331 Q92.7486,135.0331 93.2034,135.1552 Q93.6694,135.2661 94.0576,135.5212 Z " fill="#000000"/><text fill="#000000" font-family="sans-serif" font-size="9.94" lengthAdjust="spacing" textLength="29.8346" x="105.1438" y="142.5658">Money</text><line style="stroke:#181818;stroke-width:0.355;" x1="68.16" x2="150.3924" y1="149.81" y2="149.81"/><rect fill="none" height="4.26" style="stroke:#C82930;stroke-width:0.71;" width="4.26" x="73.13" y="158.1955"/><text fill="#000000" font-family="sans-serif" font-size="9.94" lengthAdjust="spacing" textLength="65.1924" x="81.65" y="163.3763">money: Money</text><line style="stroke:#181818;stroke-width:0.355;" x1="68.16" x2="150.3924" y1="168.711" y2="168.711"/></g><!--class Money--><g id="elem_Money"><rect codeLine="19" fill="#F1F1F1" height="69.4552" id="Money" rx="1.775" ry="1.775" style="stroke:#181818;stroke-width:0.355;" width="76.4644" x="71" y="339.38"/><ellipse cx="81.9617" cy="355.2066" fill="#ADD1B2" rx="7.81" ry="7.81" style="stroke:#181818;stroke-width:0.71;"/><path d="M83.9253,352.2779 Q84.0362,352.1226 84.1694,352.0449 Q84.3025,351.9672 84.4578,351.9672 Q84.724,351.9672 84.8904,352.1558 Q85.0569,352.3333 85.0569,352.766 L85.0569,353.7977 Q85.0569,354.2304 84.8904,354.419 Q84.724,354.6076 84.4578,354.6076 Q84.2137,354.6076 84.0695,354.4633 Q83.9253,354.3302 83.8476,353.9641 Q83.8144,353.709 83.6812,353.5758 Q83.4483,353.3096 83.0156,353.1543 Q82.5829,352.999 82.1392,352.999 Q81.5956,352.999 81.1408,353.2319 Q80.697,353.4649 80.342,353.9974 Q79.9981,354.5299 79.9981,355.2621 L79.9981,356.0387 Q79.9981,356.9151 80.6304,357.503 Q81.2628,358.0799 82.3944,358.0799 Q83.06,358.0799 83.5259,357.9024 Q83.8033,357.7915 84.1028,357.4808 Q84.2914,357.2922 84.3912,357.2368 Q84.5022,357.1813 84.6464,357.1813 Q84.8794,357.1813 85.0569,357.3699 Q85.2454,357.5474 85.2454,357.7915 Q85.2454,358.0355 85.0014,358.324 Q84.6464,358.7344 84.0806,358.9674 Q83.3151,359.2891 82.3944,359.2891 Q81.3183,359.2891 80.464,358.8454 Q79.7651,358.4904 79.277,357.736 Q78.7889,356.9705 78.7889,356.0608 L78.7889,355.2399 Q78.7889,354.2969 79.2215,353.4871 Q79.6653,352.6662 80.4419,352.2335 Q81.2184,351.7897 82.0948,351.7897 Q82.6162,351.7897 83.0711,351.9118 Q83.537,352.0227 83.9253,352.2779 Z " fill="#000000"/><text fill="#000000" font-family="sans-serif" font-size="8.52" font-style="italic" lengthAdjust="spacing" textLength="55.8917" x="90.551" y="352.1239">&#171;ValueObject&#187;</text><text fill="#000000" font-family="sans-serif" font-size="9.94" lengthAdjust="spacing" textLength="29.8346" x="103.5795" y="364.9885">Money</text><line style="stroke:#181818;stroke-width:0.355;" x1="71.71" x2="146.7544" y1="371.0332" y2="371.0332"/><text fill="#000000" font-family="sans-serif" font-size="9.94" lengthAdjust="spacing" textLength="67.9444" x="75.26" y="384.5995">currency: string</text><text fill="#000000" font-family="sans-serif" font-size="9.94" lengthAdjust="spacing" textLength="57.4705" x="75.26" y="397.8205">amount: long</text><line style="stroke:#181818;stroke-width:0.355;" x1="71.71" x2="146.7544" y1="403.1552" y2="403.1552"/></g><!--class naming--><g id="elem_naming"><rect fill="#F1F1F1" height="34.08" id="naming" rx="1.775" ry="1.775" style="stroke:#181818;stroke-width:0.355;" width="55.3211" x="584.33" y="357.13"/><ellipse cx="594.98" cy="368.49" fill="#ADD1B2" rx="7.81" ry="7.81" style="stroke:#181818;stroke-width:0.71;"/><path d="M596.9436,365.5613 Q597.0545,365.4059 597.1877,365.3283 Q597.3208,365.2506 597.4761,365.2506 Q597.7423,365.2506 597.9087,365.4392 Q598.0752,365.6167 598.0752,366.0494 L598.0752,367.0811 Q598.0752,367.5137 597.9087,367.7023 Q597.7423,367.8909 597.4761,367.8909 Q597.232,367.8909 597.0878,367.7467 Q596.9436,367.6136 596.8659,367.2475 Q596.8327,366.9923 596.6995,366.8592 Q596.4666,366.593 596.0339,366.4377 Q595.6012,366.2823 595.1575,366.2823 Q594.6139,366.2823 594.1591,366.5153 Q593.7153,366.7483 593.3603,367.2808 Q593.0164,367.8133 593.0164,368.5455 L593.0164,369.322 Q593.0164,370.1984 593.6488,370.7864 Q594.2811,371.3633 595.4127,371.3633 Q596.0783,371.3633 596.5442,371.1858 Q596.8216,371.0748 597.1211,370.7642 Q597.3097,370.5756 597.4095,370.5202 Q597.5205,370.4647 597.6647,370.4647 Q597.8977,370.4647 598.0752,370.6533 Q598.2638,370.8308 598.2638,371.0748 Q598.2638,371.3189 598.0197,371.6073 Q597.6647,372.0178 597.0989,372.2508 Q596.3334,372.5725 595.4127,372.5725 Q594.3366,372.5725 593.4823,372.1287 Q592.7834,371.7738 592.2953,371.0194 Q591.8072,370.2539 591.8072,369.3442 L591.8072,368.5233 Q591.8072,367.5803 592.2398,366.7705 Q592.6836,365.9495 593.4602,365.5169 Q594.2367,365.0731 595.1131,365.0731 Q595.6345,365.0731 596.0894,365.1952 Q596.5553,365.3061 596.9436,365.5613 Z " fill="#000000"/><text fill="#000000" font-family="sans-serif" font-size="9.94" lengthAdjust="spacing" textLength="32.6011" x="604.92" y="372.6058">naming</text><line style="stroke:#181818;stroke-width:0.355;" x1="585.04" x2="638.9411" y1="379.85" y2="379.85"/><line style="stroke:#181818;stroke-width:0.355;" x1="585.04" x2="638.9411" y1="385.53" y2="385.53"/></g><!--link Money to Money--><g id="link_Money_Money"><path codeLine="29" d="M109.34,174.7026 C109.34,213.8804 109.34,289.254 109.34,334.9354 " fill="none" id="Money-to-Money" style="stroke:#181818;stroke-width:0.71;stroke-dasharray:7.0,7.0;"/><polygon fill="#181818" points="109.34,339.1954,112.18,332.8054,109.34,335.6454,106.5,332.8054,109.34,339.1954" style="stroke:#181818;stroke-width:0.71;"/></g><!--link SnakeCasePhysicalNamingStrategy to naming--><g id="link_SnakeCasePhysicalNamingStrategy_naming"><path codeLine="30" d="M375.5545,172.6578 C427.2709,216.5784 542.4092,314.3498 589.2124,354.0956 " fill="none" id="SnakeCasePhysicalNamingStrategy-to-naming" style="stroke:#181818;stroke-width:0.71;stroke-dasharray:7.0,7.0;"/><polygon fill="#181818" points="592.4595,356.8531,589.4271,350.5521,589.7536,354.5552,585.7505,354.8816,592.4595,356.8531" style="stroke:#181818;stroke-width:0.71;"/></g><!--SRC=[XPBBReCm44Nt_Wehcwxg3uW0gQ9PHCfBHUf-SAR4YH-HRHQeujzhGnF5BIYpicUEcSlCTHUXhs11qIlm2pHO-KuYjSWzw4OY8RzvkgXEOF6ueD-4XhYdr_hBWlEsvRwrU2ido06j4ywZvaazOSvN-5kBmIKuHoiD5op1uU7KES51xa09tLJUWiUcerbMHguealSzIKzzAlpTA11wKl3M757EIbrfBtmthtPhD7OJrHYlAXQN8_EFwCdyxTx-4sIB-_eSLkIUYSYo1xeePaJnrjgmd20hx37CTH82PLhjbrIQ2Q1_ClYUa1UQvpdzM6tUolL-jwhYbOoUOkCgs31sDewNZJ_0M46deCSXZEZjMwaVsOFtMF0OUsQbsD3OXfr4ZLQ77AkDyKmDNVN0aXy0]--></g></svg>