<svg xmlns="http://www.w3.org/2000/svg" xmlns:xlink="http://www.w3.org/1999/xlink" contentStyleType="text/css" height="994.71px" preserveAspectRatio="none" style="width:2923px;height:994px;background:#FFFFFF;" version="1.1" viewBox="0 0 2923 994" width="2923.78px" zoomAndPan="magnify"><defs/><g><!--cluster Workers--><g id="cluster_Workers"><path d="M76.6303,4.2697 L117.1149,4.2697 A2.6625,2.6625 0 0 1 118.8899,6.0447 L123.8599,21.7507 L2905.9803,21.7507 A1.775,1.775 0 0 1 2907.7553,23.5257 L2907.7553,987.9747 A1.775,1.775 0 0 1 2905.9803,989.7497 L76.6303,989.7497 A1.775,1.775 0 0 1 74.8553,987.9747 L74.8553,6.0447 A1.775,1.775 0 0 1 76.6303,4.2697 " fill="none" style="stroke:#000000;stroke-width:1.065;"/><line style="stroke:#000000;stroke-width:1.065;" x1="74.8553" x2="123.8599" y1="21.7507" y2="21.7507"/><text fill="#000000" font-family="sans-serif" font-size="9.94" font-weight="bold" lengthAdjust="spacing" textLength="39.7746" x="77.6953" y="16.416">Workers</text></g><!--cluster Domain--><g id="cluster_Domain"><path d="M93.6703,315.2497 L130.8302,315.2497 A2.6625,2.6625 0 0 1 132.6052,317.0247 L137.5752,332.7307 L951.3503,332.7307 A1.775,1.775 0 0 1 953.1253,334.5057 L953.1253,970.9347 A1.775,1.775 0 0 1 951.3503,972.7097 L93.6703,972.7097 A1.775,1.775 0 0 1 91.8953,970.9347 L91.8953,317.0247 A1.775,1.775 0 0 1 93.6703,315.2497 " fill="none" style="stroke:#000000;stroke-width:1.065;"/><line style="stroke:#000000;stroke-width:1.065;" x1="91.8953" x2="137.5752" y1="332.7307" y2="332.7307"/><text fill="#000000" font-family="sans-serif" font-size="9.94" font-weight="bold" lengthAdjust="spacing" textLength="36.4499" x="94.7353" y="327.396">Domain</text></g><!--cluster Model--><g id="cluster_Model"><path d="M110.7103,552.3897 L140.1337,552.3897 A2.6625,2.6625 0 0 1 141.9087,554.1647 L146.8787,569.8707 L934.3103,569.8707 A1.775,1.775 0 0 1 936.0853,571.6457 L936.0853,953.8947 A1.775,1.775 0 0 1 934.3103,955.6697 L110.7103,955.6697 A1.775,1.775 0 0 1 108.9353,953.8947 L108.9353,554.1647 A1.775,1.775 0 0 1 110.7103,552.3897 " fill="none" style="stroke:#000000;stroke-width:1.065;"/><line style="stroke:#000000;stroke-width:1.065;" x1="108.9353" x2="146.8787" y1="569.8707" y2="569.8707"/><text fill="#000000" font-family="sans-serif" font-size="9.94" font-weight="bold" lengthAdjust="spacing" textLength="28.7134" x="111.7753" y="564.536">Model</text></g><!--cluster Aggregates--><g id="cluster_Aggregates"><path d="M400.3903,716.3997 L455.7849,716.3997 A2.6625,2.6625 0 0 1 457.5599,718.1747 L462.5299,733.8807 L597.0603,733.8807 A1.775,1.775 0 0 1 598.8353,735.6557 L598.8353,826.0947 A1.775,1.775 0 0 1 597.0603,827.8697 L400.3903,827.8697 A1.775,1.775 0 0 1 398.6153,826.0947 L398.6153,718.1747 A1.775,1.775 0 0 1 400.3903,716.3997 " fill="none" style="stroke:#000000;stroke-width:1.065;"/><line style="stroke:#000000;stroke-width:1.065;" x1="398.6153" x2="462.5299" y1="733.8807" y2="733.8807"/><text fill="#000000" font-family="sans-serif" font-size="9.94" font-weight="bold" lengthAdjust="spacing" textLength="54.6846" x="401.4553" y="728.546">Aggregates</text></g><!--cluster ValueObjects--><g id="cluster_ValueObjects"><path d="M312.3503,844.9097 L376.0395,844.9097 A2.6625,2.6625 0 0 1 377.8145,846.6847 L382.7845,862.3907 L672.3203,862.3907 A1.775,1.775 0 0 1 674.0953,864.1657 L674.0953,936.8547 A1.775,1.775 0 0 1 672.3203,938.6297 L312.3503,938.6297 A1.775,1.775 0 0 1 310.5753,936.8547 L310.5753,846.6847 A1.775,1.775 0 0 1 312.3503,844.9097 " fill="none" style="stroke:#000000;stroke-width:1.065;"/><line style="stroke:#000000;stroke-width:1.065;" x1="310.5753" x2="382.7845" y1="862.3907" y2="862.3907"/><text fill="#000000" font-family="sans-serif" font-size="9.94" font-weight="bold" lengthAdjust="spacing" textLength="62.9792" x="313.4153" y="857.056">ValueObjects</text></g><!--cluster Commands--><g id="cluster_Commands"><path d="M609.1303,584.3397 L663.9667,584.3397 A2.6625,2.6625 0 0 1 665.7417,586.1147 L670.7117,601.8207 L917.2703,601.8207 A1.775,1.775 0 0 1 919.0453,603.5957 L919.0453,663.5047 A1.775,1.775 0 0 1 917.2703,665.2797 L609.1303,665.2797 A1.775,1.775 0 0 1 607.3553,663.5047 L607.3553,586.1147 A1.775,1.775 0 0 1 609.1303,584.3397 " fill="none" style="stroke:#000000;stroke-width:1.065;"/><line style="stroke:#000000;stroke-width:1.065;" x1="607.3553" x2="670.7117" y1="601.8207" y2="601.8207"/><text fill="#000000" font-family="sans-serif" font-size="9.94" font-weight="bold" lengthAdjust="spacing" textLength="54.1264" x="610.1953" y="596.486">Commands</text></g><!--cluster Queries--><g id="cluster_Queries"><path d="M127.7503,584.3397 L165.4781,584.3397 A2.6625,2.6625 0 0 1 167.2531,586.1147 L172.2231,601.8207 L588.5403,601.8207 A1.775,1.775 0 0 1 590.3153,603.5957 L590.3153,663.5047 A1.775,1.775 0 0 1 588.5403,665.2797 L127.7503,665.2797 A1.775,1.775 0 0 1 125.9753,663.5047 L125.9753,586.1147 A1.775,1.775 0 0 1 127.7503,584.3397 " fill="none" style="stroke:#000000;stroke-width:1.065;"/><line style="stroke:#000000;stroke-width:1.065;" x1="125.9753" x2="172.2231" y1="601.8207" y2="601.8207"/><text fill="#000000" font-family="sans-serif" font-size="9.94" font-weight="bold" lengthAdjust="spacing" textLength="37.0178" x="128.8153" y="596.486">Queries</text></g><!--cluster Services--><g id="cluster_Services"><path d="M303.8303,347.1997 L345.4409,347.1997 A2.6625,2.6625 0 0 1 347.2159,348.9747 L352.1859,364.6807 L934.3103,364.6807 A1.775,1.775 0 0 1 936.0853,366.4557 L936.0853,465.4147 A1.775,1.775 0 0 1 934.3103,467.1897 L303.8303,467.1897 A1.775,1.775 0 0 1 302.0553,465.4147 L302.0553,348.9747 A1.775,1.775 0 0 1 303.8303,347.1997 " fill="none" style="stroke:#000000;stroke-width:1.065;"/><line style="stroke:#000000;stroke-width:1.065;" x1="302.0553" x2="352.1859" y1="364.6807" y2="364.6807"/><text fill="#000000" font-family="sans-serif" font-size="9.94" font-weight="bold" lengthAdjust="spacing" textLength="40.9006" x="304.8953" y="359.346">Services</text></g><!--cluster Application--><g id="cluster_Application"><path d="M2168.2903,281.1697 L2223.117,281.1697 A2.6625,2.6625 0 0 1 2224.892,282.9447 L2229.862,298.6507 L2881.8403,298.6507 A1.775,1.775 0 0 1 2883.6153,300.4257 L2883.6153,501.6247 A1.775,1.775 0 0 1 2881.8403,503.3997 L2168.2903,503.3997 A1.775,1.775 0 0 1 2166.5153,501.6247 L2166.5153,282.9447 A1.775,1.775 0 0 1 2168.2903,281.1697 " fill="none" style="stroke:#000000;stroke-width:1.065;"/><line style="stroke:#000000;stroke-width:1.065;" x1="2166.5153" x2="2229.862" y1="298.6507" y2="298.6507"/><text fill="#000000" font-family="sans-serif" font-size="9.94" font-weight="bold" lengthAdjust="spacing" textLength="54.1167" x="2169.3553" y="293.316">Application</text></g><!--cluster Internal--><g id="cluster_Internal"><path d="M2185.3303,313.1197 L2221.9418,313.1197 A2.6625,2.6625 0 0 1 2223.7168,314.8947 L2228.6868,330.6007 L2864.8003,330.6007 A1.775,1.775 0 0 1 2866.5753,332.3757 L2866.5753,484.5847 A1.775,1.775 0 0 1 2864.8003,486.3597 L2185.3303,486.3597 A1.775,1.775 0 0 1 2183.5553,484.5847 L2183.5553,314.8947 A1.775,1.775 0 0 1 2185.3303,313.1197 " fill="none" style="stroke:#000000;stroke-width:1.065;"/><line style="stroke:#000000;stroke-width:1.065;" x1="2183.5553" x2="2228.6868" y1="330.6007" y2="330.6007"/><text fill="#000000" font-family="sans-serif" font-size="9.94" font-weight="bold" lengthAdjust="spacing" textLength="35.9015" x="2186.3953" y="325.266">Internal</text></g><!--cluster CommandServices--><g id="cluster_CommandServices"><path d="M2528.9703,351.4597 L2619.1791,351.4597 A2.6625,2.6625 0 0 1 2620.9541,353.2347 L2625.9241,368.9407 L2847.7603,368.9407 A1.775,1.775 0 0 1 2849.5353,370.7157 L2849.5353,461.1547 A1.775,1.775 0 0 1 2847.7603,462.9297 L2528.9703,462.9297 A1.775,1.775 0 0 1 2527.1953,461.1547 L2527.1953,353.2347 A1.775,1.775 0 0 1 2528.9703,351.4597 " fill="none" style="stroke:#000000;stroke-width:1.065;"/><line style="stroke:#000000;stroke-width:1.065;" x1="2527.1953" x2="2625.9241" y1="368.9407" y2="368.9407"/><text fill="#000000" font-family="sans-serif" font-size="9.94" font-weight="bold" lengthAdjust="spacing" textLength="89.4988" x="2530.0353" y="363.606">CommandServices</text></g><!--cluster QueryServices--><g id="cluster_QueryServices"><path d="M2202.3703,345.0697 L2272.7088,345.0697 A2.6625,2.6625 0 0 1 2274.4838,346.8447 L2279.4538,362.5507 L2508.3803,362.5507 A1.775,1.775 0 0 1 2510.1553,364.3257 L2510.1553,467.5447 A1.775,1.775 0 0 1 2508.3803,469.3197 L2202.3703,469.3197 A1.775,1.775 0 0 1 2200.5953,467.5447 L2200.5953,346.8447 A1.775,1.775 0 0 1 2202.3703,345.0697 " fill="none" style="stroke:#000000;stroke-width:1.065;"/><line style="stroke:#000000;stroke-width:1.065;" x1="2200.5953" x2="2279.4538" y1="362.5507" y2="362.5507"/><text fill="#000000" font-family="sans-serif" font-size="9.94" font-weight="bold" lengthAdjust="spacing" textLength="69.6285" x="2203.4353" y="357.216">QueryServices</text></g><!--cluster Infrastructure--><g id="cluster_Infrastructure"><path d="M2426.7303,520.4397 L2492.0649,520.4397 A2.6625,2.6625 0 0 1 2493.8399,522.2147 L2498.8099,537.9207 L2616.3003,537.9207 A1.775,1.775 0 0 1 2618.0753,539.6957 L2618.0753,697.5847 A1.775,1.775 0 0 1 2616.3003,699.3597 L2426.7303,699.3597 A1.775,1.775 0 0 1 2424.9553,697.5847 L2424.9553,522.2147 A1.775,1.775 0 0 1 2426.7303,520.4397 " fill="none" style="stroke:#000000;stroke-width:1.065;"/><line style="stroke:#000000;stroke-width:1.065;" x1="2424.9553" x2="2498.8099" y1="537.9207" y2="537.9207"/><text fill="#000000" font-family="sans-serif" font-size="9.94" font-weight="bold" lengthAdjust="spacing" textLength="64.6246" x="2427.7953" y="532.586">Infrastructure</text></g><!--cluster Persistence--><g id="cluster_Persistence"><path d="M2443.7703,552.3897 L2500.2909,552.3897 A2.6625,2.6625 0 0 1 2502.0659,554.1647 L2507.0359,569.8707 L2599.2603,569.8707 A1.775,1.775 0 0 1 2601.0353,571.6457 L2601.0353,680.5447 A1.775,1.775 0 0 1 2599.2603,682.3197 L2443.7703,682.3197 A1.775,1.775 0 0 1 2441.9953,680.5447 L2441.9953,554.1647 A1.775,1.775 0 0 1 2443.7703,552.3897 " fill="none" style="stroke:#000000;stroke-width:1.065;"/><line style="stroke:#000000;stroke-width:1.065;" x1="2441.9953" x2="2507.0359" y1="569.8707" y2="569.8707"/><text fill="#000000" font-family="sans-serif" font-size="9.94" font-weight="bold" lengthAdjust="spacing" textLength="55.8106" x="2444.8353" y="564.536">Persistence</text></g><!--cluster jpa--><g id="cluster_jpa"><path d="M2460.8103,584.3397 L2475.8819,584.3397 A2.6625,2.6625 0 0 1 2477.6569,586.1147 L2482.6269,601.8207 L2582.2203,601.8207 A1.775,1.775 0 0 1 2583.9953,603.5957 L2583.9953,663.5047 A1.775,1.775 0 0 1 2582.2203,665.2797 L2460.8103,665.2797 A1.775,1.775 0 0 1 2459.0353,663.5047 L2459.0353,586.1147 A1.775,1.775 0 0 1 2460.8103,584.3397 " fill="none" style="stroke:#000000;stroke-width:1.065;"/><line style="stroke:#000000;stroke-width:1.065;" x1="2459.0353" x2="2482.6269" y1="601.8207" y2="601.8207"/><text fill="#000000" font-family="sans-serif" font-size="9.94" font-weight="bold" lengthAdjust="spacing" textLength="14.3616" x="2461.8753" y="596.486">jpa</text></g><!--cluster Interfaces--><g id="cluster_Interfaces"><path d="M971.9403,36.2197 L1019.6129,36.2197 A2.6625,2.6625 0 0 1 1021.3879,37.9947 L1026.3579,53.7007 L2147.7003,53.7007 A1.775,1.775 0 0 1 2149.4753,55.4757 L2149.4753,479.9697 A1.775,1.775 0 0 1 2147.7003,481.7447 L971.9403,481.7447 A1.775,1.775 0 0 1 970.1653,479.9697 L970.1653,37.9947 A1.775,1.775 0 0 1 971.9403,36.2197 " fill="none" style="stroke:#000000;stroke-width:1.065;"/><line style="stroke:#000000;stroke-width:1.065;" x1="970.1653" x2="1026.3579" y1="53.7007" y2="53.7007"/><text fill="#000000" font-family="sans-serif" font-size="9.94" font-weight="bold" lengthAdjust="spacing" textLength="46.9626" x="973.0053" y="48.366">Interfaces</text></g><!--cluster Rest--><g id="cluster_Rest"><path d="M988.9803,68.1697 L1011.2351,68.1697 A2.6625,2.6625 0 0 1 1013.0101,69.9447 L1017.9801,85.6507 L2130.6603,85.6507 A1.775,1.775 0 0 1 2132.4353,87.4257 L2132.4353,462.9297 A1.775,1.775 0 0 1 2130.6603,464.7047 L988.9803,464.7047 A1.775,1.775 0 0 1 987.2053,462.9297 L987.2053,69.9447 A1.775,1.775 0 0 1 988.9803,68.1697 " fill="none" style="stroke:#000000;stroke-width:1.065;"/><line style="stroke:#000000;stroke-width:1.065;" x1="987.2053" x2="1017.9801" y1="85.6507" y2="85.6507"/><text fill="#000000" font-family="sans-serif" font-size="9.94" font-weight="bold" lengthAdjust="spacing" textLength="21.5448" x="990.0453" y="80.316">Rest</text></g><!--cluster Controllers--><g id="cluster_Controllers"><path d="M1006.0203,100.1197 L1059.7501,100.1197 A2.6625,2.6625 0 0 1 1061.5251,101.8947 L1066.4951,117.6007 L1300.6703,117.6007 A1.775,1.775 0 0 1 1302.4453,119.3757 L1302.4453,262.3547 A1.775,1.775 0 0 1 1300.6703,264.1297 L1006.0203,264.1297 A1.775,1.775 0 0 1 1004.2453,262.3547 L1004.2453,101.8947 A1.775,1.775 0 0 1 1006.0203,100.1197 " fill="none" style="stroke:#000000;stroke-width:1.065;"/><line style="stroke:#000000;stroke-width:1.065;" x1="1004.2453" x2="1066.4951" y1="117.6007" y2="117.6007"/><text fill="#000000" font-family="sans-serif" font-size="9.94" font-weight="bold" lengthAdjust="spacing" textLength="53.0198" x="1007.0853" y="112.266">Controllers</text></g><!--cluster Resources--><g id="cluster_Resources"><path d="M1006.0203,366.7247 L1057.5612,366.7247 A2.6625,2.6625 0 0 1 1059.3362,368.4997 L1064.3062,384.2057 L1436.2803,384.2057 A1.775,1.775 0 0 1 1438.0553,385.9807 L1438.0553,445.8897 A1.775,1.775 0 0 1 1436.2803,447.6647 L1006.0203,447.6647 A1.775,1.775 0 0 1 1004.2453,445.8897 L1004.2453,368.4997 A1.775,1.775 0 0 1 1006.0203,366.7247 " fill="none" style="stroke:#000000;stroke-width:1.065;"/><line style="stroke:#000000;stroke-width:1.065;" x1="1004.2453" x2="1064.3062" y1="384.2057" y2="384.2057"/><text fill="#000000" font-family="sans-serif" font-size="9.94" font-weight="bold" lengthAdjust="spacing" textLength="50.8309" x="1007.0853" y="378.871">Resources</text></g><!--cluster Assembler--><g id="cluster_Assembler"><path d="M1321.2603,139.5247 L1372.8012,139.5247 A2.6625,2.6625 0 0 1 1374.5762,141.2997 L1379.5462,157.0057 L2113.6203,157.0057 A1.775,1.775 0 0 1 2115.3953,158.7807 L2115.3953,222.9497 A1.775,1.775 0 0 1 2113.6203,224.7247 L1321.2603,224.7247 A1.775,1.775 0 0 1 1319.4853,222.9497 L1319.4853,141.2997 A1.775,1.775 0 0 1 1321.2603,139.5247 " fill="none" style="stroke:#000000;stroke-width:1.065;"/><line style="stroke:#000000;stroke-width:1.065;" x1="1319.4853" x2="1379.5462" y1="157.0057" y2="157.0057"/><text fill="#000000" font-family="sans-serif" font-size="9.94" font-weight="bold" lengthAdjust="spacing" textLength="50.8309" x="1322.3253" y="151.671">Assembler</text></g><!--class Workers--><g id="elem_Workers"><rect codeLine="8" fill="#F1F1F1" height="73.7429" id="Workers" rx="1.775" ry="1.775" style="stroke:#181818;stroke-width:0.355;" width="177.0195" x="410.3303" y="742.6697"/><ellipse cx="477.3234" cy="754.0297" fill="#ADD1B2" rx="7.81" ry="7.81" style="stroke:#181818;stroke-width:0.71;"/><path d="M479.287,751.101 Q479.3979,750.9456 479.531,750.868 Q479.6642,750.7903 479.8195,750.7903 Q480.0857,750.7903 480.2521,750.9789 Q480.4185,751.1564 480.4185,751.5891 L480.4185,752.6208 Q480.4185,753.0535 480.2521,753.2421 Q480.0857,753.4306 479.8195,753.4306 Q479.5754,753.4306 479.4312,753.2864 Q479.287,753.1533 479.2093,752.7872 Q479.176,752.5321 479.0429,752.3989 Q478.8099,752.1327 478.3773,751.9774 Q477.9446,751.8221 477.5009,751.8221 Q476.9573,751.8221 476.5024,752.055 Q476.0587,752.288 475.7037,752.8205 Q475.3598,753.353 475.3598,754.0852 L475.3598,754.8617 Q475.3598,755.7381 475.9921,756.3261 Q476.6245,756.903 477.756,756.903 Q478.4217,756.903 478.8876,756.7255 Q479.1649,756.6146 479.4645,756.3039 Q479.6531,756.1153 479.7529,756.0599 Q479.8638,756.0044 480.0081,756.0044 Q480.241,756.0044 480.4185,756.193 Q480.6071,756.3705 480.6071,756.6146 Q480.6071,756.8586 480.3631,757.1471 Q480.0081,757.5575 479.4423,757.7905 Q478.6768,758.1122 477.756,758.1122 Q476.6799,758.1122 475.8257,757.6685 Q475.1268,757.3135 474.6387,756.5591 Q474.1506,755.7936 474.1506,754.8839 L474.1506,754.063 Q474.1506,753.12 474.5832,752.3102 Q475.027,751.4892 475.8035,751.0566 Q476.5801,750.6128 477.4565,750.6128 Q477.9779,750.6128 478.4328,750.7349 Q478.8987,750.8458 479.287,751.101 Z " fill="#000000"/><text fill="#000000" font-family="sans-serif" font-size="9.94" lengthAdjust="spacing" textLength="36.9983" x="491.8784" y="758.1455">Workers</text><line style="stroke:#181818;stroke-width:0.355;" x1="411.0403" x2="586.6398" y1="765.3897" y2="765.3897"/><rect fill="none" height="4.26" style="stroke:#C82930;stroke-width:0.71;" width="4.26" x="416.0103" y="773.7752"/><text fill="#000000" font-family="sans-serif" font-size="9.94" lengthAdjust="spacing" textLength="88.931" x="424.5303" y="778.956">name: WorkerName</text><rect fill="none" height="4.26" style="stroke:#C82930;stroke-width:0.71;" width="4.26" x="416.0103" y="786.9962"/><text fill="#000000" font-family="sans-serif" font-size="9.94" lengthAdjust="spacing" textLength="158.5595" x="424.5303" y="792.177">specialization: WorkerSpecialization</text><rect fill="none" height="4.26" style="stroke:#C82930;stroke-width:0.71;" width="4.26" x="416.0103" y="800.2171"/><text fill="#000000" font-family="sans-serif" font-size="9.94" lengthAdjust="spacing" textLength="117.6735" x="424.5303" y="805.3979">photo_url: WorkerPhotoUrl</text><line style="stroke:#181818;stroke-width:0.355;" x1="411.0403" x2="586.6398" y1="810.7326" y2="810.7326"/></g><!--class WorkerName--><g id="elem_WorkerName"><rect codeLine="15" fill="#F1F1F1" height="56.2342" id="WorkerName" rx="1.775" ry="1.775" style="stroke:#181818;stroke-width:0.355;" width="81.2631" x="581.7953" y="871.1797"/><ellipse cx="592.4453" cy="887.0063" fill="#ADD1B2" rx="7.81" ry="7.81" style="stroke:#181818;stroke-width:0.71;"/><path d="M594.4089,884.0776 Q594.5198,883.9223 594.653,883.8446 Q594.7861,883.767 594.9414,883.767 Q595.2076,883.767 595.374,883.9555 Q595.5405,884.133 595.5405,884.5657 L595.5405,885.5974 Q595.5405,886.0301 595.374,886.2187 Q595.2076,886.4073 594.9414,886.4073 Q594.6973,886.4073 594.5531,886.263 Q594.4089,886.1299 594.3312,885.7638 Q594.298,885.5087 594.1648,885.3755 Q593.9319,885.1093 593.4992,884.954 Q593.0665,884.7987 592.6228,884.7987 Q592.0792,884.7987 591.6244,885.0316 Q591.1806,885.2646 590.8256,885.7971 Q590.4817,886.3296 590.4817,887.0618 L590.4817,887.8384 Q590.4817,888.7148 591.114,889.3027 Q591.7464,889.8796 592.878,889.8796 Q593.5436,889.8796 594.0095,889.7021 Q594.2869,889.5912 594.5864,889.2805 Q594.775,889.092 594.8748,889.0365 Q594.9858,888.981 595.13,888.981 Q595.363,888.981 595.5405,889.1696 Q595.729,889.3471 595.729,889.5912 Q595.729,889.8352 595.485,890.1237 Q595.13,890.5341 594.5642,890.7671 Q593.7987,891.0888 592.878,891.0888 Q591.8019,891.0888 590.9476,890.6451 Q590.2487,890.2901 589.7606,889.5357 Q589.2725,888.7702 589.2725,887.8605 L589.2725,887.0396 Q589.2725,886.0966 589.7051,885.2868 Q590.1489,884.4659 590.9255,884.0332 Q591.702,883.5895 592.5784,883.5895 Q593.0998,883.5895 593.5547,883.7115 Q594.0206,883.8224 594.4089,884.0776 Z " fill="#000000"/><text fill="#000000" font-family="sans-serif" font-size="8.52" font-style="italic" lengthAdjust="spacing" textLength="55.8917" x="603.711" y="883.9237">&#171;ValueObject&#187;</text><text fill="#000000" font-family="sans-serif" font-size="9.94" lengthAdjust="spacing" textLength="58.5431" x="602.3853" y="896.7882">WorkerName</text><line style="stroke:#181818;stroke-width:0.355;" x1="582.5053" x2="662.3484" y1="902.8329" y2="902.8329"/><rect fill="none" height="4.26" style="stroke:#C82930;stroke-width:0.71;" width="4.26" x="587.4753" y="911.2184"/><text fill="#000000" font-family="sans-serif" font-size="9.94" lengthAdjust="spacing" textLength="56.3542" x="595.9953" y="916.3992">name: String</text><line style="stroke:#181818;stroke-width:0.355;" x1="582.5053" x2="662.3484" y1="921.7339" y2="921.7339"/></g><!--class WorkerSpecialization--><g id="elem_WorkerSpecialization"><rect codeLine="18" fill="#F1F1F1" height="56.2342" id="WorkerSpecialization" rx="1.775" ry="1.775" style="stroke:#181818;stroke-width:0.355;" width="116.0822" x="440.8603" y="871.1797"/><ellipse cx="451.5103" cy="887.0063" fill="#ADD1B2" rx="7.81" ry="7.81" style="stroke:#181818;stroke-width:0.71;"/><path d="M453.4739,884.0776 Q453.5848,883.9223 453.718,883.8446 Q453.8511,883.767 454.0064,883.767 Q454.2726,883.767 454.439,883.9555 Q454.6055,884.133 454.6055,884.5657 L454.6055,885.5974 Q454.6055,886.0301 454.439,886.2187 Q454.2726,886.4073 454.0064,886.4073 Q453.7623,886.4073 453.6181,886.263 Q453.4739,886.1299 453.3962,885.7638 Q453.363,885.5087 453.2298,885.3755 Q452.9969,885.1093 452.5642,884.954 Q452.1315,884.7987 451.6878,884.7987 Q451.1442,884.7987 450.6894,885.0316 Q450.2456,885.2646 449.8906,885.7971 Q449.5467,886.3296 449.5467,887.0618 L449.5467,887.8384 Q449.5467,888.7148 450.179,889.3027 Q450.8114,889.8796 451.943,889.8796 Q452.6086,889.8796 453.0745,889.7021 Q453.3519,889.5912 453.6514,889.2805 Q453.84,889.092 453.9398,889.0365 Q454.0508,888.981 454.195,888.981 Q454.428,888.981 454.6055,889.1696 Q454.794,889.3471 454.794,889.5912 Q454.794,889.8352 454.55,890.1237 Q454.195,890.5341 453.6292,890.7671 Q452.8637,891.0888 451.943,891.0888 Q450.8669,891.0888 450.0126,890.6451 Q449.3137,890.2901 448.8256,889.5357 Q448.3375,888.7702 448.3375,887.8605 L448.3375,887.0396 Q448.3375,886.0966 448.7701,885.2868 Q449.2139,884.4659 449.9905,884.0332 Q450.767,883.5895 451.6434,883.5895 Q452.1648,883.5895 452.6197,883.7115 Q453.0856,883.8224 453.4739,884.0776 Z " fill="#000000"/><text fill="#000000" font-family="sans-serif" font-size="8.52" font-style="italic" lengthAdjust="spacing" textLength="55.8917" x="480.1856" y="883.9237">&#171;ValueObject&#187;</text><text fill="#000000" font-family="sans-serif" font-size="9.94" lengthAdjust="spacing" textLength="93.3622" x="461.4503" y="896.7882">WorkerSpecialization</text><line style="stroke:#181818;stroke-width:0.355;" x1="441.5703" x2="556.2325" y1="902.8329" y2="902.8329"/><rect fill="none" height="4.26" style="stroke:#C82930;stroke-width:0.71;" width="4.26" x="446.5403" y="911.2184"/><text fill="#000000" font-family="sans-serif" font-size="9.94" lengthAdjust="spacing" textLength="91.1636" x="455.0603" y="916.3992">specialization: String</text><line style="stroke:#181818;stroke-width:0.355;" x1="441.5703" x2="556.2325" y1="921.7339" y2="921.7339"/></g><!--class WorkerPhotoUrl--><g id="elem_WorkerPhotoUrl"><rect codeLine="21" fill="#F1F1F1" height="56.2342" id="WorkerPhotoUrl" rx="1.775" ry="1.775" style="stroke:#181818;stroke-width:0.355;" width="93.4212" x="321.9353" y="871.1797"/><ellipse cx="332.5853" cy="887.0063" fill="#ADD1B2" rx="7.81" ry="7.81" style="stroke:#181818;stroke-width:0.71;"/><path d="M334.5489,884.0776 Q334.6598,883.9223 334.793,883.8446 Q334.9261,883.767 335.0814,883.767 Q335.3476,883.767 335.514,883.9555 Q335.6805,884.133 335.6805,884.5657 L335.6805,885.5974 Q335.6805,886.0301 335.514,886.2187 Q335.3476,886.4073 335.0814,886.4073 Q334.8373,886.4073 334.6931,886.263 Q334.5489,886.1299 334.4712,885.7638 Q334.438,885.5087 334.3048,885.3755 Q334.0719,885.1093 333.6392,884.954 Q333.2065,884.7987 332.7628,884.7987 Q332.2192,884.7987 331.7644,885.0316 Q331.3206,885.2646 330.9656,885.7971 Q330.6217,886.3296 330.6217,887.0618 L330.6217,887.8384 Q330.6217,888.7148 331.254,889.3027 Q331.8864,889.8796 333.018,889.8796 Q333.6836,889.8796 334.1495,889.7021 Q334.4269,889.5912 334.7264,889.2805 Q334.915,889.092 335.0148,889.0365 Q335.1258,888.981 335.27,888.981 Q335.503,888.981 335.6805,889.1696 Q335.869,889.3471 335.869,889.5912 Q335.869,889.8352 335.625,890.1237 Q335.27,890.5341 334.7042,890.7671 Q333.9387,891.0888 333.018,891.0888 Q331.9419,891.0888 331.0876,890.6451 Q330.3887,890.2901 329.9006,889.5357 Q329.4125,888.7702 329.4125,887.8605 L329.4125,887.0396 Q329.4125,886.0966 329.8451,885.2868 Q330.2889,884.4659 331.0655,884.0332 Q331.842,883.5895 332.7184,883.5895 Q333.2398,883.5895 333.6947,883.7115 Q334.1606,883.8224 334.5489,884.0776 Z " fill="#000000"/><text fill="#000000" font-family="sans-serif" font-size="8.52" font-style="italic" lengthAdjust="spacing" textLength="55.8917" x="349.93" y="883.9237">&#171;ValueObject&#187;</text><text fill="#000000" font-family="sans-serif" font-size="9.94" lengthAdjust="spacing" textLength="70.7012" x="342.5253" y="896.7882">WorkerPhotoUrl</text><line style="stroke:#181818;stroke-width:0.355;" x1="322.6453" x2="414.6465" y1="902.8329" y2="902.8329"/><rect fill="none" height="4.26" style="stroke:#C82930;stroke-width:0.71;" width="4.26" x="327.6153" y="911.2184"/><text fill="#000000" font-family="sans-serif" font-size="9.94" lengthAdjust="spacing" textLength="72.9386" x="336.1353" y="916.3992">photo_url: String</text><line style="stroke:#181818;stroke-width:0.355;" x1="322.6453" x2="414.6465" y1="921.7339" y2="921.7339"/></g><!--class CreateWorkerCommand--><g id="elem_CreateWorkerCommand"><rect codeLine="26" fill="#F1F1F1" height="43.0132" id="CreateWorkerCommand" rx="1.775" ry="1.775" style="stroke:#181818;stroke-width:0.355;" width="130.4341" x="618.7153" y="610.6097"/><ellipse cx="629.3653" cy="626.4363" fill="#ADD1B2" rx="7.81" ry="7.81" style="stroke:#181818;stroke-width:0.71;"/><path d="M631.3289,623.5076 Q631.4398,623.3523 631.573,623.2746 Q631.7061,623.197 631.8614,623.197 Q632.1276,623.197 632.2941,623.3855 Q632.4605,623.563 632.4605,623.9957 L632.4605,625.0274 Q632.4605,625.4601 632.2941,625.6487 Q632.1276,625.8373 631.8614,625.8373 Q631.6173,625.8373 631.4731,625.693 Q631.3289,625.5599 631.2512,625.1938 Q631.218,624.9387 631.0848,624.8055 Q630.8519,624.5393 630.4192,624.384 Q629.9866,624.2287 629.5428,624.2287 Q628.9992,624.2287 628.5444,624.4616 Q628.1006,624.6946 627.7456,625.2271 Q627.4017,625.7596 627.4017,626.4918 L627.4017,627.2684 Q627.4017,628.1448 628.0341,628.7327 Q628.6664,629.3096 629.798,629.3096 Q630.4636,629.3096 630.9295,629.1321 Q631.2069,629.0212 631.5064,628.7105 Q631.695,628.522 631.7948,628.4665 Q631.9058,628.411 632.05,628.411 Q632.283,628.411 632.4605,628.5996 Q632.6491,628.7771 632.6491,629.0212 Q632.6491,629.2652 632.405,629.5537 Q632.05,629.9641 631.4842,630.1971 Q630.7187,630.5188 629.798,630.5188 Q628.7219,630.5188 627.8676,630.0751 Q627.1687,629.7201 626.6806,628.9657 Q626.1925,628.2002 626.1925,627.2905 L626.1925,626.4696 Q626.1925,625.5266 626.6251,624.7168 Q627.0689,623.8959 627.8455,623.4632 Q628.622,623.0195 629.4984,623.0195 Q630.0198,623.0195 630.4747,623.1415 Q630.9406,623.2524 631.3289,623.5076 Z " fill="#000000"/><text fill="#000000" font-family="sans-serif" font-size="8.52" font-style="italic" lengthAdjust="spacing" textLength="36.9422" x="674.6912" y="623.3537">&#171;Record&#187;</text><text fill="#000000" font-family="sans-serif" font-size="9.94" lengthAdjust="spacing" textLength="107.7141" x="639.3053" y="636.2182">CreateWorkerCommand</text><line style="stroke:#181818;stroke-width:0.355;" x1="619.4253" x2="748.4394" y1="642.2629" y2="642.2629"/><line style="stroke:#181818;stroke-width:0.355;" x1="619.4253" x2="748.4394" y1="647.9429" y2="647.9429"/></g><!--class UpdateWorkerCommand--><g id="elem_UpdateWorkerCommand"><rect codeLine="27" fill="#F1F1F1" height="43.0132" id="UpdateWorkerCommand" rx="1.775" ry="1.775" style="stroke:#181818;stroke-width:0.355;" width="132.6521" x="774.5603" y="610.6097"/><ellipse cx="785.2103" cy="626.4363" fill="#ADD1B2" rx="7.81" ry="7.81" style="stroke:#181818;stroke-width:0.71;"/><path d="M787.1739,623.5076 Q787.2848,623.3523 787.418,623.2746 Q787.5511,623.197 787.7064,623.197 Q787.9726,623.197 788.1391,623.3855 Q788.3055,623.563 788.3055,623.9957 L788.3055,625.0274 Q788.3055,625.4601 788.1391,625.6487 Q787.9726,625.8373 787.7064,625.8373 Q787.4623,625.8373 787.3181,625.693 Q787.1739,625.5599 787.0962,625.1938 Q787.063,624.9387 786.9298,624.8055 Q786.6969,624.5393 786.2642,624.384 Q785.8316,624.2287 785.3878,624.2287 Q784.8442,624.2287 784.3894,624.4616 Q783.9456,624.6946 783.5906,625.2271 Q783.2467,625.7596 783.2467,626.4918 L783.2467,627.2684 Q783.2467,628.1448 783.8791,628.7327 Q784.5114,629.3096 785.643,629.3096 Q786.3086,629.3096 786.7745,629.1321 Q787.0519,629.0212 787.3514,628.7105 Q787.54,628.522 787.6398,628.4665 Q787.7508,628.411 787.895,628.411 Q788.128,628.411 788.3055,628.5996 Q788.4941,628.7771 788.4941,629.0212 Q788.4941,629.2652 788.25,629.5537 Q787.895,629.9641 787.3292,630.1971 Q786.5637,630.5188 785.643,630.5188 Q784.5669,630.5188 783.7126,630.0751 Q783.0137,629.7201 782.5256,628.9657 Q782.0375,628.2002 782.0375,627.2905 L782.0375,626.4696 Q782.0375,625.5266 782.4701,624.7168 Q782.9139,623.8959 783.6905,623.4632 Q784.467,623.0195 785.3434,623.0195 Q785.8648,623.0195 786.3197,623.1415 Q786.7856,623.2524 787.1739,623.5076 Z " fill="#000000"/><text fill="#000000" font-family="sans-serif" font-size="8.52" font-style="italic" lengthAdjust="spacing" textLength="36.9422" x="831.6453" y="623.3537">&#171;Record&#187;</text><text fill="#000000" font-family="sans-serif" font-size="9.94" lengthAdjust="spacing" textLength="109.9321" x="795.1503" y="636.2182">UpdateWorkerCommand</text><line style="stroke:#181818;stroke-width:0.355;" x1="775.2703" x2="906.5024" y1="642.2629" y2="642.2629"/><line style="stroke:#181818;stroke-width:0.355;" x1="775.2703" x2="906.5024" y1="647.9429" y2="647.9429"/></g><!--class GetAllWorkersQuery--><g id="elem_GetAllWorkersQuery"><rect codeLine="30" fill="#F1F1F1" height="43.0132" id="GetAllWorkersQuery" rx="1.775" ry="1.775" style="stroke:#181818;stroke-width:0.355;" width="113.8545" x="280.0453" y="610.6097"/><ellipse cx="290.6953" cy="626.4363" fill="#ADD1B2" rx="7.81" ry="7.81" style="stroke:#181818;stroke-width:0.71;"/><path d="M292.6589,623.5076 Q292.7698,623.3523 292.903,623.2746 Q293.0361,623.197 293.1914,623.197 Q293.4576,623.197 293.624,623.3855 Q293.7905,623.563 293.7905,623.9957 L293.7905,625.0274 Q293.7905,625.4601 293.624,625.6487 Q293.4576,625.8373 293.1914,625.8373 Q292.9473,625.8373 292.8031,625.693 Q292.6589,625.5599 292.5812,625.1938 Q292.548,624.9387 292.4148,624.8055 Q292.1819,624.5393 291.7492,624.384 Q291.3165,624.2287 290.8728,624.2287 Q290.3292,624.2287 289.8744,624.4616 Q289.4306,624.6946 289.0756,625.2271 Q288.7317,625.7596 288.7317,626.4918 L288.7317,627.2684 Q288.7317,628.1448 289.364,628.7327 Q289.9964,629.3096 291.128,629.3096 Q291.7936,629.3096 292.2595,629.1321 Q292.5369,629.0212 292.8364,628.7105 Q293.025,628.522 293.1248,628.4665 Q293.2358,628.411 293.38,628.411 Q293.613,628.411 293.7905,628.5996 Q293.9791,628.7771 293.9791,629.0212 Q293.9791,629.2652 293.735,629.5537 Q293.38,629.9641 292.8142,630.1971 Q292.0487,630.5188 291.128,630.5188 Q290.0519,630.5188 289.1976,630.0751 Q288.4987,629.7201 288.0106,628.9657 Q287.5225,628.2002 287.5225,627.2905 L287.5225,626.4696 Q287.5225,625.5266 287.9551,624.7168 Q288.3989,623.8959 289.1755,623.4632 Q289.952,623.0195 290.8284,623.0195 Q291.3498,623.0195 291.8047,623.1415 Q292.2706,623.2524 292.6589,623.5076 Z " fill="#000000"/><text fill="#000000" font-family="sans-serif" font-size="8.52" font-style="italic" lengthAdjust="spacing" textLength="36.9422" x="327.7314" y="623.3537">&#171;Record&#187;</text><text fill="#000000" font-family="sans-serif" font-size="9.94" lengthAdjust="spacing" textLength="91.1345" x="300.6353" y="636.2182">GetAllWorkersQuery</text><line style="stroke:#181818;stroke-width:0.355;" x1="280.7553" x2="393.1898" y1="642.2629" y2="642.2629"/><line style="stroke:#181818;stroke-width:0.355;" x1="280.7553" x2="393.1898" y1="647.9429" y2="647.9429"/></g><!--class GetWorkerByIdQuery--><g id="elem_GetWorkerByIdQuery"><rect codeLine="31" fill="#F1F1F1" height="43.0132" id="GetWorkerByIdQuery" rx="1.775" ry="1.775" style="stroke:#181818;stroke-width:0.355;" width="117.7276" x="137.3353" y="610.6097"/><ellipse cx="147.9853" cy="626.4363" fill="#ADD1B2" rx="7.81" ry="7.81" style="stroke:#181818;stroke-width:0.71;"/><path d="M149.9489,623.5076 Q150.0598,623.3523 150.193,623.2746 Q150.3261,623.197 150.4814,623.197 Q150.7476,623.197 150.9141,623.3855 Q151.0805,623.563 151.0805,623.9957 L151.0805,625.0274 Q151.0805,625.4601 150.9141,625.6487 Q150.7476,625.8373 150.4814,625.8373 Q150.2373,625.8373 150.0931,625.693 Q149.9489,625.5599 149.8712,625.1938 Q149.838,624.9387 149.7048,624.8055 Q149.4719,624.5393 149.0392,624.384 Q148.6066,624.2287 148.1628,624.2287 Q147.6192,624.2287 147.1644,624.4616 Q146.7206,624.6946 146.3656,625.2271 Q146.0217,625.7596 146.0217,626.4918 L146.0217,627.2684 Q146.0217,628.1448 146.654,628.7327 Q147.2864,629.3096 148.418,629.3096 Q149.0836,629.3096 149.5495,629.1321 Q149.8269,629.0212 150.1264,628.7105 Q150.315,628.522 150.4148,628.4665 Q150.5258,628.411 150.67,628.411 Q150.903,628.411 151.0805,628.5996 Q151.2691,628.7771 151.2691,629.0212 Q151.2691,629.2652 151.025,629.5537 Q150.67,629.9641 150.1042,630.1971 Q149.3387,630.5188 148.418,630.5188 Q147.3419,630.5188 146.4876,630.0751 Q145.7887,629.7201 145.3006,628.9657 Q144.8125,628.2002 144.8125,627.2905 L144.8125,626.4696 Q144.8125,625.5266 145.2451,624.7168 Q145.6889,623.8959 146.4655,623.4632 Q147.242,623.0195 148.1184,623.0195 Q148.6398,623.0195 149.0947,623.1415 Q149.5606,623.2524 149.9489,623.5076 Z " fill="#000000"/><text fill="#000000" font-family="sans-serif" font-size="8.52" font-style="italic" lengthAdjust="spacing" textLength="36.9422" x="186.958" y="623.3537">&#171;Record&#187;</text><text fill="#000000" font-family="sans-serif" font-size="9.94" lengthAdjust="spacing" textLength="95.0076" x="157.9253" y="636.2182">GetWorkerByIdQuery</text><line style="stroke:#181818;stroke-width:0.355;" x1="138.0453" x2="254.3529" y1="642.2629" y2="642.2629"/><line style="stroke:#181818;stroke-width:0.355;" x1="138.0453" x2="254.3529" y1="647.9429" y2="647.9429"/></g><!--class GetWorkersByProviderIdQuery--><g id="elem_GetWorkersByProviderIdQuery"><rect codeLine="32" fill="#F1F1F1" height="43.0132" id="GetWorkersByProviderIdQuery" rx="1.775" ry="1.775" style="stroke:#181818;stroke-width:0.355;" width="159.7105" x="418.8503" y="610.6097"/><ellipse cx="429.5003" cy="626.4363" fill="#ADD1B2" rx="7.81" ry="7.81" style="stroke:#181818;stroke-width:0.71;"/><path d="M431.4639,623.5076 Q431.5748,623.3523 431.708,623.2746 Q431.8411,623.197 431.9964,623.197 Q432.2626,623.197 432.429,623.3855 Q432.5955,623.563 432.5955,623.9957 L432.5955,625.0274 Q432.5955,625.4601 432.429,625.6487 Q432.2626,625.8373 431.9964,625.8373 Q431.7523,625.8373 431.6081,625.693 Q431.4639,625.5599 431.3862,625.1938 Q431.353,624.9387 431.2198,624.8055 Q430.9869,624.5393 430.5542,624.384 Q430.1215,624.2287 429.6778,624.2287 Q429.1342,624.2287 428.6794,624.4616 Q428.2356,624.6946 427.8806,625.2271 Q427.5367,625.7596 427.5367,626.4918 L427.5367,627.2684 Q427.5367,628.1448 428.169,628.7327 Q428.8014,629.3096 429.933,629.3096 Q430.5986,629.3096 431.0645,629.1321 Q431.3419,629.0212 431.6414,628.7105 Q431.83,628.522 431.9298,628.4665 Q432.0408,628.411 432.185,628.411 Q432.418,628.411 432.5955,628.5996 Q432.784,628.7771 432.784,629.0212 Q432.784,629.2652 432.54,629.5537 Q432.185,629.9641 431.6192,630.1971 Q430.8537,630.5188 429.933,630.5188 Q428.8569,630.5188 428.0026,630.0751 Q427.3037,629.7201 426.8156,628.9657 Q426.3275,628.2002 426.3275,627.2905 L426.3275,626.4696 Q426.3275,625.5266 426.7601,624.7168 Q427.2039,623.8959 427.9805,623.4632 Q428.757,623.0195 429.6334,623.0195 Q430.1548,623.0195 430.6097,623.1415 Q431.0756,623.2524 431.4639,623.5076 Z " fill="#000000"/><text fill="#000000" font-family="sans-serif" font-size="8.52" font-style="italic" lengthAdjust="spacing" textLength="36.9422" x="489.4644" y="623.3537">&#171;Record&#187;</text><text fill="#000000" font-family="sans-serif" font-size="9.94" lengthAdjust="spacing" textLength="136.9905" x="439.4403" y="636.2182">GetWorkersByProviderIdQuery</text><line style="stroke:#181818;stroke-width:0.355;" x1="419.5603" x2="577.8508" y1="642.2629" y2="642.2629"/><line style="stroke:#181818;stroke-width:0.355;" x1="419.5603" x2="577.8508" y1="647.9429" y2="647.9429"/></g><!--class WorkerCommandService--><g id="elem_WorkerCommandService"><rect codeLine="36" fill="#F1F1F1" height="69.4552" id="WorkerCommandService" rx="1.775" ry="1.775" style="stroke:#181818;stroke-width:0.355;" width="299.6581" x="625.1053" y="379.8597"/><ellipse cx="716.4048" cy="395.6863" fill="#ADD1B2" rx="7.81" ry="7.81" style="stroke:#181818;stroke-width:0.71;"/><path d="M718.3684,392.7576 Q718.4793,392.6023 718.6124,392.5246 Q718.7456,392.447 718.9009,392.447 Q719.1671,392.447 719.3335,392.6355 Q719.4999,392.813 719.4999,393.2457 L719.4999,394.2774 Q719.4999,394.7101 719.3335,394.8987 Q719.1671,395.0873 718.9009,395.0873 Q718.6568,395.0873 718.5126,394.943 Q718.3684,394.8099 718.2907,394.4438 Q718.2574,394.1887 718.1243,394.0555 Q717.8913,393.7893 717.4587,393.634 Q717.026,393.4787 716.5823,393.4787 Q716.0387,393.4787 715.5838,393.7116 Q715.1401,393.9446 714.7851,394.4771 Q714.4412,395.0096 714.4412,395.7418 L714.4412,396.5184 Q714.4412,397.3948 715.0735,397.9827 Q715.7059,398.5596 716.8374,398.5596 Q717.5031,398.5596 717.969,398.3821 Q718.2463,398.2712 718.5459,397.9605 Q718.7345,397.772 718.8343,397.7165 Q718.9453,397.661 719.0895,397.661 Q719.3224,397.661 719.4999,397.8496 Q719.6885,398.0271 719.6885,398.2712 Q719.6885,398.5152 719.4445,398.8037 Q719.0895,399.2141 718.5237,399.4471 Q717.7582,399.7688 716.8374,399.7688 Q715.7613,399.7688 714.9071,399.3251 Q714.2082,398.9701 713.7201,398.2157 Q713.232,397.4502 713.232,396.5405 L713.232,395.7196 Q713.232,394.7766 713.6646,393.9668 Q714.1084,393.1459 714.8849,392.7132 Q715.6615,392.2695 716.5379,392.2695 Q717.0593,392.2695 717.5142,392.3915 Q717.9801,392.5024 718.3684,392.7576 Z " fill="#000000"/><text fill="#000000" font-family="sans-serif" font-size="8.52" font-style="italic" lengthAdjust="spacing" textLength="42.6291" x="765.1573" y="392.6037">&#171;Interface&#187;</text><text fill="#000000" font-family="sans-serif" font-size="9.94" lengthAdjust="spacing" textLength="111.0242" x="730.9598" y="405.4682">WorkerCommandService</text><line style="stroke:#181818;stroke-width:0.355;" x1="625.8153" x2="924.0534" y1="411.5129" y2="411.5129"/><line style="stroke:#181818;stroke-width:0.355;" x1="625.8153" x2="924.0534" y1="417.1929" y2="417.1929"/><ellipse cx="632.9153" cy="427.7084" fill="#84BE84" rx="2.13" ry="2.13" style="stroke:#038048;stroke-width:0.71;"/><text fill="#000000" font-family="sans-serif" font-size="9.94" lengthAdjust="spacing" textLength="278.9801" x="639.3053" y="430.7592">Optional&lt;Workers&gt; handle(CreateWorkerCommand command)</text><ellipse cx="632.9153" cy="440.9294" fill="#84BE84" rx="2.13" ry="2.13" style="stroke:#038048;stroke-width:0.71;"/><text fill="#000000" font-family="sans-serif" font-size="9.94" lengthAdjust="spacing" textLength="281.1981" x="639.3053" y="443.9802">Optional&lt;Workers&gt; handle(UpdateWorkerCommand command)</text></g><!--class WorkersQueryService--><g id="elem_WorkersQueryService"><rect codeLine="40" fill="#F1F1F1" height="82.6762" id="WorkersQueryService" rx="1.775" ry="1.775" style="stroke:#181818;stroke-width:0.355;" width="286.3838" x="313.7703" y="373.4697"/><ellipse cx="405.3392" cy="389.2963" fill="#ADD1B2" rx="7.81" ry="7.81" style="stroke:#181818;stroke-width:0.71;"/><path d="M407.3027,386.3676 Q407.4137,386.2123 407.5468,386.1346 Q407.6799,386.057 407.8352,386.057 Q408.1015,386.057 408.2679,386.2455 Q408.4343,386.423 408.4343,386.8557 L408.4343,387.8874 Q408.4343,388.3201 408.2679,388.5087 Q408.1015,388.6973 407.8352,388.6973 Q407.5912,388.6973 407.447,388.553 Q407.3027,388.4199 407.2251,388.0538 Q407.1918,387.7987 407.0587,387.6655 Q406.8257,387.3993 406.3931,387.244 Q405.9604,387.0887 405.5167,387.0887 Q404.9731,387.0887 404.5182,387.3216 Q404.0745,387.5546 403.7195,388.0871 Q403.3756,388.6196 403.3756,389.3518 L403.3756,390.1284 Q403.3756,391.0048 404.0079,391.5927 Q404.6402,392.1696 405.7718,392.1696 Q406.4374,392.1696 406.9034,391.9921 Q407.1807,391.8812 407.4802,391.5705 Q407.6688,391.382 407.7687,391.3265 Q407.8796,391.271 408.0238,391.271 Q408.2568,391.271 408.4343,391.4596 Q408.6229,391.6371 408.6229,391.8812 Q408.6229,392.1252 408.3788,392.4137 Q408.0238,392.8241 407.4581,393.0571 Q406.6926,393.3788 405.7718,393.3788 Q404.6957,393.3788 403.8415,392.9351 Q403.1426,392.5801 402.6545,391.8257 Q402.1663,391.0602 402.1663,390.1505 L402.1663,389.3296 Q402.1663,388.3866 402.599,387.5768 Q403.0427,386.7559 403.8193,386.3232 Q404.5959,385.8795 405.4723,385.8795 Q405.9937,385.8795 406.4485,386.0015 Q406.9145,386.1124 407.3027,386.3676 Z " fill="#000000"/><text fill="#000000" font-family="sans-serif" font-size="8.52" font-style="italic" lengthAdjust="spacing" textLength="42.6291" x="447.1851" y="386.2137">&#171;Interface&#187;</text><text fill="#000000" font-family="sans-serif" font-size="9.94" lengthAdjust="spacing" textLength="97.2111" x="419.8942" y="399.0782">WorkersQueryService</text><line style="stroke:#181818;stroke-width:0.355;" x1="314.4803" x2="599.4441" y1="405.1229" y2="405.1229"/><line style="stroke:#181818;stroke-width:0.355;" x1="314.4803" x2="599.4441" y1="410.8029" y2="410.8029"/><ellipse cx="321.5803" cy="421.3184" fill="#84BE84" rx="2.13" ry="2.13" style="stroke:#038048;stroke-width:0.71;"/><text fill="#000000" font-family="sans-serif" font-size="9.94" lengthAdjust="spacing" textLength="222.0678" x="327.9703" y="424.3692">List&lt;Workers&gt; handle(GetAllWorkersQuery query)</text><ellipse cx="321.5803" cy="434.5394" fill="#84BE84" rx="2.13" ry="2.13" style="stroke:#038048;stroke-width:0.71;"/><text fill="#000000" font-family="sans-serif" font-size="9.94" lengthAdjust="spacing" textLength="247.4953" x="327.9703" y="437.5902">Optional&lt;Workers&gt; handle(GetWorkerByIdQuery query)</text><ellipse cx="321.5803" cy="447.7604" fill="#84BE84" rx="2.13" ry="2.13" style="stroke:#038048;stroke-width:0.71;"/><text fill="#000000" font-family="sans-serif" font-size="9.94" lengthAdjust="spacing" textLength="267.9238" x="327.9703" y="450.8112">List&lt;Workers&gt; handle(GetWorkersByProviderIdQuery query)</text></g><!--class WorkerCommandServiceImpl--><g id="elem_WorkerCommandServiceImpl"><rect codeLine="50" fill="#F1F1F1" height="73.7429" id="WorkerCommandServiceImpl" rx="1.775" ry="1.775" style="stroke:#181818;stroke-width:0.355;" width="299.6581" x="2538.5553" y="377.7297"/><ellipse cx="2620.4657" cy="389.0897" fill="#ADD1B2" rx="7.81" ry="7.81" style="stroke:#181818;stroke-width:0.71;"/><path d="M2622.4293,386.161 Q2622.5402,386.0056 2622.6733,385.928 Q2622.8064,385.8503 2622.9618,385.8503 Q2623.228,385.8503 2623.3944,386.0389 Q2623.5608,386.2164 2623.5608,386.6491 L2623.5608,387.6808 Q2623.5608,388.1135 2623.3944,388.3021 Q2623.228,388.4906 2622.9618,388.4906 Q2622.7177,388.4906 2622.5735,388.3464 Q2622.4293,388.2133 2622.3516,387.8472 Q2622.3183,387.5921 2622.1852,387.4589 Q2621.9522,387.1927 2621.5196,387.0374 Q2621.0869,386.8821 2620.6432,386.8821 Q2620.0996,386.8821 2619.6447,387.115 Q2619.201,387.348 2618.846,387.8805 Q2618.5021,388.413 2618.5021,389.1452 L2618.5021,389.9217 Q2618.5021,390.7981 2619.1344,391.3861 Q2619.7668,391.963 2620.8983,391.963 Q2621.5639,391.963 2622.0299,391.7855 Q2622.3072,391.6746 2622.6068,391.3639 Q2622.7953,391.1753 2622.8952,391.1199 Q2623.0061,391.0644 2623.1503,391.0644 Q2623.3833,391.0644 2623.5608,391.253 Q2623.7494,391.4305 2623.7494,391.6746 Q2623.7494,391.9186 2623.5053,392.2071 Q2623.1503,392.6175 2622.5846,392.8505 Q2621.8191,393.1722 2620.8983,393.1722 Q2619.8222,393.1722 2618.968,392.7285 Q2618.2691,392.3735 2617.781,391.6191 Q2617.2928,390.8536 2617.2928,389.9439 L2617.2928,389.123 Q2617.2928,388.18 2617.7255,387.3702 Q2618.1693,386.5492 2618.9458,386.1166 Q2619.7224,385.6728 2620.5988,385.6728 Q2621.1202,385.6728 2621.575,385.7949 Q2622.041,385.9058 2622.4293,386.161 Z " fill="#000000"/><text fill="#000000" font-family="sans-serif" font-size="9.94" lengthAdjust="spacing" textLength="129.8024" x="2635.0207" y="393.2055">WorkerCommandServiceImpl</text><line style="stroke:#181818;stroke-width:0.355;" x1="2539.2653" x2="2837.5034" y1="400.4497" y2="400.4497"/><rect fill="none" height="4.26" style="stroke:#C82930;stroke-width:0.71;" width="4.26" x="2544.2353" y="408.8352"/><text fill="#000000" font-family="sans-serif" font-size="9.94" lengthAdjust="spacing" textLength="162.3986" x="2552.7553" y="414.016">WorkerRepository: workerRepository</text><line style="stroke:#181818;stroke-width:0.71;" x1="2539.2653" x2="2837.5034" y1="419.3507" y2="419.3507"/><ellipse cx="2546.3653" cy="429.8662" fill="#84BE84" rx="2.13" ry="2.13" style="stroke:#038048;stroke-width:0.71;"/><text fill="#000000" font-family="sans-serif" font-size="9.94" lengthAdjust="spacing" textLength="278.9801" x="2552.7553" y="432.917">Optional&lt;Workers&gt; handle(CreateWorkerCommand command)</text><ellipse cx="2546.3653" cy="443.0871" fill="#84BE84" rx="2.13" ry="2.13" style="stroke:#038048;stroke-width:0.71;"/><text fill="#000000" font-family="sans-serif" font-size="9.94" lengthAdjust="spacing" textLength="281.1981" x="2552.7553" y="446.1379">Optional&lt;Workers&gt; handle(UpdateWorkerCommand command)</text></g><!--class WorkersQueryServiceImpl--><g id="elem_WorkersQueryServiceImpl"><rect codeLine="58" fill="#F1F1F1" height="86.9639" id="WorkersQueryServiceImpl" rx="1.775" ry="1.775" style="stroke:#181818;stroke-width:0.355;" width="286.3838" x="2212.3103" y="371.3397"/><ellipse cx="2294.49" cy="382.6997" fill="#ADD1B2" rx="7.81" ry="7.81" style="stroke:#181818;stroke-width:0.71;"/><path d="M2296.4536,379.771 Q2296.5646,379.6156 2296.6977,379.538 Q2296.8308,379.4603 2296.9861,379.4603 Q2297.2524,379.4603 2297.4188,379.6489 Q2297.5852,379.8264 2297.5852,380.2591 L2297.5852,381.2908 Q2297.5852,381.7235 2297.4188,381.9121 Q2297.2524,382.1006 2296.9861,382.1006 Q2296.7421,382.1006 2296.5978,381.9564 Q2296.4536,381.8233 2296.376,381.4572 Q2296.3427,381.2021 2296.2096,381.0689 Q2295.9766,380.8027 2295.5439,380.6474 Q2295.1113,380.4921 2294.6675,380.4921 Q2294.1239,380.4921 2293.6691,380.725 Q2293.2253,380.958 2292.8703,381.4905 Q2292.5264,382.023 2292.5264,382.7552 L2292.5264,383.5317 Q2292.5264,384.4081 2293.1588,384.9961 Q2293.7911,385.573 2294.9227,385.573 Q2295.5883,385.573 2296.0542,385.3955 Q2296.3316,385.2846 2296.6311,384.9739 Q2296.8197,384.7853 2296.9196,384.7299 Q2297.0305,384.6744 2297.1747,384.6744 Q2297.4077,384.6744 2297.5852,384.863 Q2297.7738,385.0405 2297.7738,385.2846 Q2297.7738,385.5286 2297.5297,385.8171 Q2297.1747,386.2275 2296.6089,386.4605 Q2295.8435,386.7822 2294.9227,386.7822 Q2293.8466,386.7822 2292.9924,386.3385 Q2292.2935,385.9835 2291.8053,385.2291 Q2291.3172,384.4636 2291.3172,383.5539 L2291.3172,382.733 Q2291.3172,381.79 2291.7499,380.9802 Q2292.1936,380.1592 2292.9702,379.7266 Q2293.7467,379.2828 2294.6232,379.2828 Q2295.1446,379.2828 2295.5994,379.4049 Q2296.0653,379.5158 2296.4536,379.771 Z " fill="#000000"/><text fill="#000000" font-family="sans-serif" font-size="9.94" lengthAdjust="spacing" textLength="115.9893" x="2309.045" y="386.8155">WorkersQueryServiceImpl</text><line style="stroke:#181818;stroke-width:0.355;" x1="2213.0203" x2="2497.9841" y1="394.0597" y2="394.0597"/><rect fill="none" height="4.26" style="stroke:#C82930;stroke-width:0.71;" width="4.26" x="2217.9903" y="402.4452"/><text fill="#000000" font-family="sans-serif" font-size="9.94" lengthAdjust="spacing" textLength="162.3986" x="2226.5103" y="407.626">WorkerRepository: workerRepository</text><line style="stroke:#181818;stroke-width:0.71;" x1="2213.0203" x2="2497.9841" y1="412.9607" y2="412.9607"/><ellipse cx="2220.1203" cy="423.4762" fill="#84BE84" rx="2.13" ry="2.13" style="stroke:#038048;stroke-width:0.71;"/><text fill="#000000" font-family="sans-serif" font-size="9.94" lengthAdjust="spacing" textLength="222.0678" x="2226.5103" y="426.527">List&lt;Workers&gt; handle(GetAllWorkersQuery query)</text><ellipse cx="2220.1203" cy="436.6971" fill="#84BE84" rx="2.13" ry="2.13" style="stroke:#038048;stroke-width:0.71;"/><text fill="#000000" font-family="sans-serif" font-size="9.94" lengthAdjust="spacing" textLength="247.4953" x="2226.5103" y="439.7479">Optional&lt;Workers&gt; handle(GetWorkerByIdQuery query)</text><ellipse cx="2220.1203" cy="449.9181" fill="#84BE84" rx="2.13" ry="2.13" style="stroke:#038048;stroke-width:0.71;"/><text fill="#000000" font-family="sans-serif" font-size="9.94" lengthAdjust="spacing" textLength="267.9238" x="2226.5103" y="452.9689">List&lt;Workers&gt; handle(GetWorkersByProviderIdQuery query)</text></g><!--class WorkerRepository--><g id="elem_WorkerRepository"><rect codeLine="71" fill="#F1F1F1" height="43.0132" id="WorkerRepository" rx="1.775" ry="1.775" style="stroke:#181818;stroke-width:0.355;" width="102.2594" x="2470.3953" y="610.6097"/><ellipse cx="2481.0453" cy="626.4363" fill="#ADD1B2" rx="7.81" ry="7.81" style="stroke:#181818;stroke-width:0.71;"/><path d="M2483.0089,623.5076 Q2483.1198,623.3523 2483.253,623.2746 Q2483.3861,623.197 2483.5414,623.197 Q2483.8076,623.197 2483.9741,623.3855 Q2484.1405,623.563 2484.1405,623.9957 L2484.1405,625.0274 Q2484.1405,625.4601 2483.9741,625.6487 Q2483.8076,625.8373 2483.5414,625.8373 Q2483.2973,625.8373 2483.1531,625.693 Q2483.0089,625.5599 2482.9312,625.1938 Q2482.898,624.9387 2482.7648,624.8055 Q2482.5319,624.5393 2482.0992,624.384 Q2481.6666,624.2287 2481.2228,624.2287 Q2480.6792,624.2287 2480.2244,624.4616 Q2479.7806,624.6946 2479.4256,625.2271 Q2479.0817,625.7596 2479.0817,626.4918 L2479.0817,627.2684 Q2479.0817,628.1448 2479.7141,628.7327 Q2480.3464,629.3096 2481.478,629.3096 Q2482.1436,629.3096 2482.6095,629.1321 Q2482.8869,629.0212 2483.1864,628.7105 Q2483.375,628.522 2483.4748,628.4665 Q2483.5858,628.411 2483.73,628.411 Q2483.963,628.411 2484.1405,628.5996 Q2484.3291,628.7771 2484.3291,629.0212 Q2484.3291,629.2652 2484.085,629.5537 Q2483.73,629.9641 2483.1642,630.1971 Q2482.3987,630.5188 2481.478,630.5188 Q2480.4019,630.5188 2479.5476,630.0751 Q2478.8487,629.7201 2478.3606,628.9657 Q2477.8725,628.2002 2477.8725,627.2905 L2477.8725,626.4696 Q2477.8725,625.5266 2478.3051,624.7168 Q2478.7489,623.8959 2479.5255,623.4632 Q2480.302,623.0195 2481.1784,623.0195 Q2481.6998,623.0195 2482.1547,623.1415 Q2482.6206,623.2524 2483.0089,623.5076 Z " fill="#000000"/><text fill="#000000" font-family="sans-serif" font-size="8.52" font-style="italic" lengthAdjust="spacing" textLength="42.6291" x="2509.4404" y="623.3537">&#171;Interface&#187;</text><text fill="#000000" font-family="sans-serif" font-size="9.94" lengthAdjust="spacing" textLength="79.5394" x="2490.9853" y="636.2182">WorkerRepository</text><line style="stroke:#181818;stroke-width:0.355;" x1="2471.1053" x2="2571.9447" y1="642.2629" y2="642.2629"/><line style="stroke:#181818;stroke-width:0.355;" x1="2471.1053" x2="2571.9447" y1="647.9429" y2="647.9429"/></g><!--class WorkerController--><g id="elem_WorkerController"><rect codeLine="78" fill="#F1F1F1" height="126.6268" id="WorkerController" rx="1.775" ry="1.775" style="stroke:#181818;stroke-width:0.355;" width="275.342" x="1015.6053" y="126.3897"/><ellipse cx="1112.6999" cy="137.7497" fill="#ADD1B2" rx="7.81" ry="7.81" style="stroke:#181818;stroke-width:0.71;"/><path d="M1114.6635,134.821 Q1114.7744,134.6656 1114.9075,134.588 Q1115.0407,134.5103 1115.196,134.5103 Q1115.4622,134.5103 1115.6286,134.6989 Q1115.795,134.8764 1115.795,135.3091 L1115.795,136.3408 Q1115.795,136.7735 1115.6286,136.9621 Q1115.4622,137.1506 1115.196,137.1506 Q1114.9519,137.1506 1114.8077,137.0064 Q1114.6635,136.8733 1114.5858,136.5072 Q1114.5525,136.2521 1114.4194,136.1189 Q1114.1864,135.8527 1113.7538,135.6974 Q1113.3211,135.5421 1112.8774,135.5421 Q1112.3338,135.5421 1111.8789,135.775 Q1111.4352,136.008 1111.0802,136.5405 Q1110.7363,137.073 1110.7363,137.8052 L1110.7363,138.5817 Q1110.7363,139.4581 1111.3686,140.0461 Q1112.001,140.623 1113.1325,140.623 Q1113.7982,140.623 1114.2641,140.4455 Q1114.5414,140.3346 1114.841,140.0239 Q1115.0296,139.8353 1115.1294,139.7799 Q1115.2403,139.7244 1115.3846,139.7244 Q1115.6175,139.7244 1115.795,139.913 Q1115.9836,140.0905 1115.9836,140.3346 Q1115.9836,140.5786 1115.7396,140.8671 Q1115.3846,141.2775 1114.8188,141.5105 Q1114.0533,141.8322 1113.1325,141.8322 Q1112.0564,141.8322 1111.2022,141.3885 Q1110.5033,141.0335 1110.0152,140.2791 Q1109.5271,139.5136 1109.5271,138.6039 L1109.5271,137.783 Q1109.5271,136.84 1109.9597,136.0302 Q1110.4035,135.2092 1111.18,134.7766 Q1111.9566,134.3328 1112.833,134.3328 Q1113.3544,134.3328 1113.8093,134.4549 Q1114.2752,134.5658 1114.6635,134.821 Z " fill="#000000"/><text fill="#000000" font-family="sans-serif" font-size="9.94" lengthAdjust="spacing" textLength="75.1179" x="1127.2549" y="141.8655">WorkerController</text><line style="stroke:#181818;stroke-width:0.355;" x1="1016.3153" x2="1290.2373" y1="149.1097" y2="149.1097"/><rect fill="none" height="4.26" style="stroke:#C82930;stroke-width:0.71;" width="4.26" x="1021.2853" y="157.4952"/><text fill="#000000" font-family="sans-serif" font-size="9.94" lengthAdjust="spacing" textLength="225.3681" x="1029.8053" y="162.676">WorkerCommandService: workerCommandService</text><rect fill="none" height="4.26" style="stroke:#C82930;stroke-width:0.71;" width="4.26" x="1021.2853" y="170.7162"/><text fill="#000000" font-family="sans-serif" font-size="9.94" lengthAdjust="spacing" textLength="197.7419" x="1029.8053" y="175.897">WorkersQueryService: workersQueryService</text><line style="stroke:#181818;stroke-width:0.71;" x1="1016.3153" x2="1290.2373" y1="181.2317" y2="181.2317"/><ellipse cx="1023.4153" cy="191.7471" fill="#84BE84" rx="2.13" ry="2.13" style="stroke:#038048;stroke-width:0.71;"/><text fill="#000000" font-family="sans-serif" font-size="9.94" lengthAdjust="spacing" textLength="227.5959" x="1029.8053" y="194.7979">ResponseEntity&lt;WorkerResource&gt;: createWorker()</text><ellipse cx="1023.4153" cy="204.9681" fill="#84BE84" rx="2.13" ry="2.13" style="stroke:#038048;stroke-width:0.71;"/><text fill="#000000" font-family="sans-serif" font-size="9.94" lengthAdjust="spacing" textLength="230.3721" x="1029.8053" y="208.0189">ResponseEntity&lt;WorkerResource&gt;: updateWorker()</text><ellipse cx="1023.4153" cy="218.1891" fill="#84BE84" rx="2.13" ry="2.13" style="stroke:#038048;stroke-width:0.71;"/><text fill="#000000" font-family="sans-serif" font-size="9.94" lengthAdjust="spacing" textLength="220.9709" x="1029.8053" y="221.2399">ResponseEntity&lt;?&gt;: getWorkersWithParameters()</text><ellipse cx="1023.4153" cy="231.4101" fill="#84BE84" rx="2.13" ry="2.13" style="stroke:#038048;stroke-width:0.71;"/><text fill="#000000" font-family="sans-serif" font-size="9.94" lengthAdjust="spacing" textLength="233.6774" x="1029.8053" y="234.4609">ResponseEntity&lt;WorkerResource&gt;: getWorkerById()</text><ellipse cx="1023.4153" cy="244.6311" fill="#84BE84" rx="2.13" ry="2.13" style="stroke:#038048;stroke-width:0.71;"/><text fill="#000000" font-family="sans-serif" font-size="9.94" lengthAdjust="spacing" textLength="256.882" x="1029.8053" y="247.6818">ResponseEntity&lt;List&lt;WorkerResource&gt;&gt;: getAllWorkers()</text></g><!--class WorkerResource--><g id="elem_WorkerResource"><rect codeLine="90" fill="#F1F1F1" height="43.0132" id="WorkerResource" rx="1.775" ry="1.775" style="stroke:#181818;stroke-width:0.355;" width="97.2894" x="1329.0703" y="392.9947"/><ellipse cx="1339.7203" cy="408.8213" fill="#ADD1B2" rx="7.81" ry="7.81" style="stroke:#181818;stroke-width:0.71;"/><path d="M1341.6839,405.8926 Q1341.7948,405.7373 1341.928,405.6596 Q1342.0611,405.582 1342.2164,405.582 Q1342.4826,405.582 1342.6491,405.7705 Q1342.8155,405.948 1342.8155,406.3807 L1342.8155,407.4124 Q1342.8155,407.8451 1342.6491,408.0337 Q1342.4826,408.2223 1342.2164,408.2223 Q1341.9723,408.2223 1341.8281,408.078 Q1341.6839,407.9449 1341.6062,407.5788 Q1341.573,407.3237 1341.4398,407.1905 Q1341.2069,406.9243 1340.7742,406.769 Q1340.3415,406.6137 1339.8978,406.6137 Q1339.3542,406.6137 1338.8994,406.8466 Q1338.4556,407.0796 1338.1006,407.6121 Q1337.7567,408.1446 1337.7567,408.8768 L1337.7567,409.6534 Q1337.7567,410.5298 1338.3891,411.1177 Q1339.0214,411.6946 1340.153,411.6946 Q1340.8186,411.6946 1341.2845,411.5171 Q1341.5619,411.4062 1341.8614,411.0955 Q1342.05,410.907 1342.1498,410.8515 Q1342.2608,410.796 1342.405,410.796 Q1342.638,410.796 1342.8155,410.9846 Q1343.0041,411.1621 1343.0041,411.4062 Q1343.0041,411.6502 1342.76,411.9387 Q1342.405,412.3491 1341.8392,412.5821 Q1341.0737,412.9038 1340.153,412.9038 Q1339.0769,412.9038 1338.2226,412.4601 Q1337.5237,412.1051 1337.0356,411.3507 Q1336.5475,410.5852 1336.5475,409.6755 L1336.5475,408.8546 Q1336.5475,407.9116 1336.9801,407.1018 Q1337.4239,406.2809 1338.2005,405.8482 Q1338.977,405.4045 1339.8534,405.4045 Q1340.3748,405.4045 1340.8297,405.5265 Q1341.2956,405.6374 1341.6839,405.8926 Z " fill="#000000"/><text fill="#000000" font-family="sans-serif" font-size="8.52" font-style="italic" lengthAdjust="spacing" textLength="36.9422" x="1368.4739" y="405.7387">&#171;Record&#187;</text><text fill="#000000" font-family="sans-serif" font-size="9.94" lengthAdjust="spacing" textLength="74.5694" x="1349.6603" y="418.6032">WorkerResource</text><line style="stroke:#181818;stroke-width:0.355;" x1="1329.7803" x2="1425.6497" y1="424.6479" y2="424.6479"/><line style="stroke:#181818;stroke-width:0.355;" x1="1329.7803" x2="1425.6497" y1="430.3279" y2="430.3279"/></g><!--class CreateWorkerCommand--><g id="elem_CreateWorkerCommand"><rect codeLine="91" fill="#F1F1F1" height="43.0132" id="CreateWorkerCommand" rx="1.775" ry="1.775" style="stroke:#181818;stroke-width:0.355;" width="130.4341" x="1015.6053" y="392.9947"/><ellipse cx="1026.2553" cy="408.8213" fill="#ADD1B2" rx="7.81" ry="7.81" style="stroke:#181818;stroke-width:0.71;"/><path d="M1028.2189,405.8926 Q1028.3298,405.7373 1028.463,405.6596 Q1028.5961,405.582 1028.7514,405.582 Q1029.0176,405.582 1029.1841,405.7705 Q1029.3505,405.948 1029.3505,406.3807 L1029.3505,407.4124 Q1029.3505,407.8451 1029.1841,408.0337 Q1029.0176,408.2223 1028.7514,408.2223 Q1028.5073,408.2223 1028.3631,408.078 Q1028.2189,407.9449 1028.1412,407.5788 Q1028.108,407.3237 1027.9748,407.1905 Q1027.7419,406.9243 1027.3092,406.769 Q1026.8766,406.6137 1026.4328,406.6137 Q1025.8892,406.6137 1025.4344,406.8466 Q1024.9906,407.0796 1024.6356,407.6121 Q1024.2917,408.1446 1024.2917,408.8768 L1024.2917,409.6534 Q1024.2917,410.5298 1024.9241,411.1177 Q1025.5564,411.6946 1026.688,411.6946 Q1027.3536,411.6946 1027.8195,411.5171 Q1028.0969,411.4062 1028.3964,411.0955 Q1028.585,410.907 1028.6848,410.8515 Q1028.7958,410.796 1028.94,410.796 Q1029.173,410.796 1029.3505,410.9846 Q1029.5391,411.1621 1029.5391,411.4062 Q1029.5391,411.6502 1029.295,411.9387 Q1028.94,412.3491 1028.3742,412.5821 Q1027.6087,412.9038 1026.688,412.9038 Q1025.6119,412.9038 1024.7576,412.4601 Q1024.0587,412.1051 1023.5706,411.3507 Q1023.0825,410.5852 1023.0825,409.6755 L1023.0825,408.8546 Q1023.0825,407.9116 1023.5151,407.1018 Q1023.9589,406.2809 1024.7355,405.8482 Q1025.512,405.4045 1026.3884,405.4045 Q1026.9098,405.4045 1027.3647,405.5265 Q1027.8306,405.6374 1028.2189,405.8926 Z " fill="#000000"/><text fill="#000000" font-family="sans-serif" font-size="8.52" font-style="italic" lengthAdjust="spacing" textLength="36.9422" x="1071.5812" y="405.7387">&#171;Record&#187;</text><text fill="#000000" font-family="sans-serif" font-size="9.94" lengthAdjust="spacing" textLength="107.7141" x="1036.1953" y="418.6032">CreateWorkerCommand</text><line style="stroke:#181818;stroke-width:0.355;" x1="1016.3153" x2="1145.3294" y1="424.6479" y2="424.6479"/><line style="stroke:#181818;stroke-width:0.355;" x1="1016.3153" x2="1145.3294" y1="430.3279" y2="430.3279"/></g><!--class UpdateWorkerCommand--><g id="elem_UpdateWorkerCommand"><rect codeLine="92" fill="#F1F1F1" height="43.0132" id="UpdateWorkerCommand" rx="1.775" ry="1.775" style="stroke:#181818;stroke-width:0.355;" width="132.6521" x="1171.4503" y="392.9947"/><ellipse cx="1182.1003" cy="408.8213" fill="#ADD1B2" rx="7.81" ry="7.81" style="stroke:#181818;stroke-width:0.71;"/><path d="M1184.0639,405.8926 Q1184.1748,405.7373 1184.308,405.6596 Q1184.4411,405.582 1184.5964,405.582 Q1184.8626,405.582 1185.0291,405.7705 Q1185.1955,405.948 1185.1955,406.3807 L1185.1955,407.4124 Q1185.1955,407.8451 1185.0291,408.0337 Q1184.8626,408.2223 1184.5964,408.2223 Q1184.3523,408.2223 1184.2081,408.078 Q1184.0639,407.9449 1183.9862,407.5788 Q1183.953,407.3237 1183.8198,407.1905 Q1183.5869,406.9243 1183.1542,406.769 Q1182.7216,406.6137 1182.2778,406.6137 Q1181.7342,406.6137 1181.2794,406.8466 Q1180.8356,407.0796 1180.4806,407.6121 Q1180.1367,408.1446 1180.1367,408.8768 L1180.1367,409.6534 Q1180.1367,410.5298 1180.769,411.1177 Q1181.4014,411.6946 1182.533,411.6946 Q1183.1986,411.6946 1183.6645,411.5171 Q1183.9419,411.4062 1184.2414,411.0955 Q1184.43,410.907 1184.5298,410.8515 Q1184.6408,410.796 1184.785,410.796 Q1185.018,410.796 1185.1955,410.9846 Q1185.3841,411.1621 1185.3841,411.4062 Q1185.3841,411.6502 1185.14,411.9387 Q1184.785,412.3491 1184.2192,412.5821 Q1183.4537,412.9038 1182.533,412.9038 Q1181.4569,412.9038 1180.6026,412.4601 Q1179.9037,412.1051 1179.4156,411.3507 Q1178.9275,410.5852 1178.9275,409.6755 L1178.9275,408.8546 Q1178.9275,407.9116 1179.3601,407.1018 Q1179.8039,406.2809 1180.5805,405.8482 Q1181.357,405.4045 1182.2334,405.4045 Q1182.7548,405.4045 1183.2097,405.5265 Q1183.6756,405.6374 1184.0639,405.8926 Z " fill="#000000"/><text fill="#000000" font-family="sans-serif" font-size="8.52" font-style="italic" lengthAdjust="spacing" textLength="36.9422" x="1228.5353" y="405.7387">&#171;Record&#187;</text><text fill="#000000" font-family="sans-serif" font-size="9.94" lengthAdjust="spacing" textLength="109.9321" x="1192.0403" y="418.6032">UpdateWorkerCommand</text><line style="stroke:#181818;stroke-width:0.355;" x1="1172.1603" x2="1303.3924" y1="424.6479" y2="424.6479"/><line style="stroke:#181818;stroke-width:0.355;" x1="1172.1603" x2="1303.3924" y1="430.3279" y2="430.3279"/></g><!--class WorkerResourceFromEntityAssembler--><g id="elem_WorkerResourceFromEntityAssembler"><rect codeLine="95" fill="#F1F1F1" height="47.301" id="WorkerResourceFromEntityAssembler" rx="1.775" ry="1.775" style="stroke:#181818;stroke-width:0.355;" width="204.0536" x="1899.9103" y="165.7947"/><ellipse cx="1915.853" cy="177.1547" fill="#ADD1B2" rx="7.81" ry="7.81" style="stroke:#181818;stroke-width:0.71;"/><path d="M1917.8165,174.226 Q1917.9275,174.0706 1918.0606,173.993 Q1918.1937,173.9153 1918.349,173.9153 Q1918.6153,173.9153 1918.7817,174.1039 Q1918.9481,174.2814 1918.9481,174.7141 L1918.9481,175.7458 Q1918.9481,176.1785 1918.7817,176.3671 Q1918.6153,176.5556 1918.349,176.5556 Q1918.105,176.5556 1917.9608,176.4114 Q1917.8165,176.2783 1917.7389,175.9122 Q1917.7056,175.6571 1917.5725,175.5239 Q1917.3395,175.2577 1916.9069,175.1024 Q1916.4742,174.9471 1916.0305,174.9471 Q1915.4869,174.9471 1915.032,175.18 Q1914.5883,175.413 1914.2333,175.9455 Q1913.8894,176.478 1913.8894,177.2102 L1913.8894,177.9867 Q1913.8894,178.8631 1914.5217,179.4511 Q1915.154,180.028 1916.2856,180.028 Q1916.9512,180.028 1917.4172,179.8505 Q1917.6945,179.7396 1917.994,179.4289 Q1918.1826,179.2403 1918.2825,179.1849 Q1918.3934,179.1294 1918.5376,179.1294 Q1918.7706,179.1294 1918.9481,179.318 Q1919.1367,179.4955 1919.1367,179.7396 Q1919.1367,179.9836 1918.8926,180.2721 Q1918.5376,180.6825 1917.9719,180.9155 Q1917.2064,181.2372 1916.2856,181.2372 Q1915.2095,181.2372 1914.3553,180.7935 Q1913.6564,180.4385 1913.1683,179.6841 Q1912.6801,178.9186 1912.6801,178.0089 L1912.6801,177.188 Q1912.6801,176.245 1913.1128,175.4352 Q1913.5565,174.6142 1914.3331,174.1816 Q1915.1097,173.7378 1915.9861,173.7378 Q1916.5075,173.7378 1916.9623,173.8599 Q1917.4283,173.9708 1917.8165,174.226 Z " fill="#000000"/><text fill="#000000" font-family="sans-serif" font-size="9.94" lengthAdjust="spacing" textLength="169.5721" x="1926.9691" y="181.2705">WorkerResourceFromEntityAssembler</text><line style="stroke:#181818;stroke-width:0.355;" x1="1900.6203" x2="2103.2539" y1="188.5147" y2="188.5147"/><line style="stroke:#181818;stroke-width:0.355;" x1="1900.6203" x2="2103.2539" y1="194.1947" y2="194.1947"/><ellipse cx="1907.7203" cy="204.7102" fill="#84BE84" rx="2.13" ry="2.13" style="stroke:#038048;stroke-width:0.71;"/><text fill="#000000" font-family="sans-serif" font-size="9.94" lengthAdjust="spacing" textLength="185.5936" x="1914.1103" y="207.761">WorkerResource: toResourceFromEntity()</text></g><!--class CreateWorkerCommandFromResourceAssembler--><g id="elem_CreateWorkerCommandFromResourceAssembler"><rect codeLine="98" fill="#F1F1F1" height="47.301" id="CreateWorkerCommandFromResourceAssembler" rx="1.775" ry="1.775" style="stroke:#181818;stroke-width:0.355;" width="258.1897" x="1330.8453" y="165.7947"/><ellipse cx="1348.2775" cy="177.1547" fill="#ADD1B2" rx="7.81" ry="7.81" style="stroke:#181818;stroke-width:0.71;"/><path d="M1350.2411,174.226 Q1350.352,174.0706 1350.4852,173.993 Q1350.6183,173.9153 1350.7736,173.9153 Q1351.0398,173.9153 1351.2062,174.1039 Q1351.3727,174.2814 1351.3727,174.7141 L1351.3727,175.7458 Q1351.3727,176.1785 1351.2062,176.3671 Q1351.0398,176.5556 1350.7736,176.5556 Q1350.5295,176.5556 1350.3853,176.4114 Q1350.2411,176.2783 1350.1634,175.9122 Q1350.1302,175.6571 1349.997,175.5239 Q1349.7641,175.2577 1349.3314,175.1024 Q1348.8987,174.9471 1348.455,174.9471 Q1347.9114,174.9471 1347.4566,175.18 Q1347.0128,175.413 1346.6578,175.9455 Q1346.3139,176.478 1346.3139,177.2102 L1346.3139,177.9867 Q1346.3139,178.8631 1346.9462,179.4511 Q1347.5786,180.028 1348.7102,180.028 Q1349.3758,180.028 1349.8417,179.8505 Q1350.1191,179.7396 1350.4186,179.4289 Q1350.6072,179.2403 1350.707,179.1849 Q1350.818,179.1294 1350.9622,179.1294 Q1351.1952,179.1294 1351.3727,179.318 Q1351.5612,179.4955 1351.5612,179.7396 Q1351.5612,179.9836 1351.3172,180.2721 Q1350.9622,180.6825 1350.3964,180.9155 Q1349.6309,181.2372 1348.7102,181.2372 Q1347.6341,181.2372 1346.7798,180.7935 Q1346.0809,180.4385 1345.5928,179.6841 Q1345.1047,178.9186 1345.1047,178.0089 L1345.1047,177.188 Q1345.1047,176.245 1345.5373,175.4352 Q1345.9811,174.6142 1346.7577,174.1816 Q1347.5342,173.7378 1348.4106,173.7378 Q1348.932,173.7378 1349.3869,173.8599 Q1349.8528,173.9708 1350.2411,174.226 Z " fill="#000000"/><text fill="#000000" font-family="sans-serif" font-size="9.94" lengthAdjust="spacing" textLength="220.3981" x="1359.7247" y="181.2705">CreateWorkerCommandFromResourceAssembler</text><line style="stroke:#181818;stroke-width:0.355;" x1="1331.5553" x2="1588.325" y1="188.5147" y2="188.5147"/><line style="stroke:#181818;stroke-width:0.355;" x1="1331.5553" x2="1588.325" y1="194.1947" y2="194.1947"/><ellipse cx="1338.6553" cy="204.7102" fill="#84BE84" rx="2.13" ry="2.13" style="stroke:#038048;stroke-width:0.71;"/><text fill="#000000" font-family="sans-serif" font-size="9.94" lengthAdjust="spacing" textLength="239.7297" x="1345.0453" y="207.761">CreateWorkerCommand: toCommandFromResource()</text></g><!--class UpdateWorkerCommandFromResourceAssembler--><g id="elem_UpdateWorkerCommandFromResourceAssembler"><rect codeLine="101" fill="#F1F1F1" height="47.301" id="UpdateWorkerCommandFromResourceAssembler" rx="1.775" ry="1.775" style="stroke:#181818;stroke-width:0.355;" width="260.4078" x="1614.4903" y="165.7947"/><ellipse cx="1631.9225" cy="177.1547" fill="#ADD1B2" rx="7.81" ry="7.81" style="stroke:#181818;stroke-width:0.71;"/><path d="M1633.8861,174.226 Q1633.997,174.0706 1634.1302,173.993 Q1634.2633,173.9153 1634.4186,173.9153 Q1634.6848,173.9153 1634.8512,174.1039 Q1635.0177,174.2814 1635.0177,174.7141 L1635.0177,175.7458 Q1635.0177,176.1785 1634.8512,176.3671 Q1634.6848,176.5556 1634.4186,176.5556 Q1634.1745,176.5556 1634.0303,176.4114 Q1633.8861,176.2783 1633.8084,175.9122 Q1633.7752,175.6571 1633.642,175.5239 Q1633.4091,175.2577 1632.9764,175.1024 Q1632.5437,174.9471 1632.1,174.9471 Q1631.5564,174.9471 1631.1016,175.18 Q1630.6578,175.413 1630.3028,175.9455 Q1629.9589,176.478 1629.9589,177.2102 L1629.9589,177.9867 Q1629.9589,178.8631 1630.5912,179.4511 Q1631.2236,180.028 1632.3552,180.028 Q1633.0208,180.028 1633.4867,179.8505 Q1633.7641,179.7396 1634.0636,179.4289 Q1634.2522,179.2403 1634.352,179.1849 Q1634.463,179.1294 1634.6072,179.1294 Q1634.8402,179.1294 1635.0177,179.318 Q1635.2062,179.4955 1635.2062,179.7396 Q1635.2062,179.9836 1634.9622,180.2721 Q1634.6072,180.6825 1634.0414,180.9155 Q1633.2759,181.2372 1632.3552,181.2372 Q1631.2791,181.2372 1630.4248,180.7935 Q1629.7259,180.4385 1629.2378,179.6841 Q1628.7497,178.9186 1628.7497,178.0089 L1628.7497,177.188 Q1628.7497,176.245 1629.1823,175.4352 Q1629.6261,174.6142 1630.4027,174.1816 Q1631.1792,173.7378 1632.0556,173.7378 Q1632.577,173.7378 1633.0319,173.8599 Q1633.4978,173.9708 1633.8861,174.226 Z " fill="#000000"/><text fill="#000000" font-family="sans-serif" font-size="9.94" lengthAdjust="spacing" textLength="222.6162" x="1643.3697" y="181.2705">UpdateWorkerCommandFromResourceAssembler</text><line style="stroke:#181818;stroke-width:0.355;" x1="1615.2003" x2="1874.1881" y1="188.5147" y2="188.5147"/><line style="stroke:#181818;stroke-width:0.355;" x1="1615.2003" x2="1874.1881" y1="194.1947" y2="194.1947"/><ellipse cx="1622.3003" cy="204.7102" fill="#84BE84" rx="2.13" ry="2.13" style="stroke:#038048;stroke-width:0.71;"/><text fill="#000000" font-family="sans-serif" font-size="9.94" lengthAdjust="spacing" textLength="241.9478" x="1628.6903" y="207.761">UpdateWorkerCommand: toCommandFromResource()</text></g><!--link Workers to WorkerName--><g id="link_Workers_WorkerName"><path codeLine="109" d="M543.9878,816.6304 C552.4936,823.9079 561.1769,831.6469 569.0153,839.2297 C579.2677,849.1342 587.0723,857.4689 596.1035,867.7142 " fill="none" id="Workers-to-WorkerName" style="stroke:#181818;stroke-width:0.71;"/><polygon fill="#181818" points="598.9205,870.9099,596.8255,864.2384,596.573,868.2469,592.5646,867.9944,598.9205,870.9099" style="stroke:#181818;stroke-width:0.71;"/></g><!--link Workers to WorkerSpecialization--><g id="link_Workers_WorkerSpecialization"><path codeLine="110" d="M498.7253,816.7298 C498.7253,834.2384 498.7253,850.6039 498.7253,866.7635 " fill="none" id="Workers-to-WorkerSpecialization" style="stroke:#181818;stroke-width:0.71;"/><polygon fill="#181818" points="498.7253,871.0235,501.5653,864.6335,498.7253,867.4735,495.8853,864.6335,498.7253,871.0235" style="stroke:#181818;stroke-width:0.71;"/></g><!--link Workers to WorkerPhotoUrl--><g id="link_Workers_WorkerPhotoUrl"><path codeLine="111" d="M454.3645,816.5168 C445.6528,823.9008 436.6713,831.7108 428.4353,839.2297 C417.338,849.3685 408.5143,857.929 398.3471,868.1459 " fill="none" id="Workers-to-WorkerPhotoUrl" style="stroke:#181818;stroke-width:0.71;"/><polygon fill="#181818" points="395.3422,871.1655,401.8627,868.6394,397.8463,868.6492,397.8365,864.6328,395.3422,871.1655" style="stroke:#181818;stroke-width:0.71;"/></g><!--link CreateWorkerCommand to Workers--><g id="link_CreateWorkerCommand_Workers"><path codeLine="113" d="M657.2896,654.0333 C627.924,677.158 583.5876,712.0676 548.1728,739.9493 " fill="none" id="CreateWorkerCommand-to-Workers" style="stroke:#181818;stroke-width:0.71;"/><polygon fill="#181818" points="544.8256,742.5845,551.6031,740.8632,547.6149,740.3885,548.0895,736.4003,544.8256,742.5845" style="stroke:#181818;stroke-width:0.71;"/></g><!--link UpdateWorkerCommand to Workers--><g id="link_UpdateWorkerCommand_Workers"><path codeLine="114" d="M822.9042,654.1753 C808.1078,670.3065 785.7996,691.8976 762.1353,705.0397 C707.8558,735.1934 644.478,752.9462 591.3771,763.937 " fill="none" id="UpdateWorkerCommand-to-Workers" style="stroke:#181818;stroke-width:0.71;"/><polygon fill="#181818" points="587.2055,764.8004,594.0385,766.2863,590.6818,764.0809,592.8872,760.7242,587.2055,764.8004" style="stroke:#181818;stroke-width:0.71;"/></g><!--link GetAllWorkersQuery to Workers--><g id="link_GetAllWorkersQuery_Workers"><path codeLine="116" d="M355.9656,654.1753 C369.5834,668.9149 388.5546,688.7594 406.4253,705.0397 C420.462,717.8197 433.0651,728.3628 447.7053,739.9855 " fill="none" id="GetAllWorkersQuery-to-Workers" style="stroke:#181818;stroke-width:0.71;"/><polygon fill="#181818" points="451.0417,742.6342,447.8029,736.4368,448.2613,740.4269,444.2712,740.8854,451.0417,742.6342" style="stroke:#181818;stroke-width:0.71;"/></g><!--link GetWorkerByIdQuery to Workers--><g id="link_GetWorkerByIdQuery_Workers"><path codeLine="117" d="M212.432,654.012 C225.7587,670.0509 245.9937,691.5994 267.9753,705.0397 C311.3989,731.5866 361.1983,748.4718 405.9993,760.0235 " fill="none" id="GetWorkerByIdQuery-to-Workers" style="stroke:#181818;stroke-width:0.71;"/><polygon fill="#181818" points="410.1244,761.0871,404.6459,756.7416,406.6868,760.2007,403.2277,762.2417,410.1244,761.0871" style="stroke:#181818;stroke-width:0.71;"/></g><!--link GetWorkersByProviderIdQuery to Workers--><g id="link_GetWorkersByProviderIdQuery_Workers"><path codeLine="118" d="M498.7253,654.1895 C498.7253,677.3497 498.7253,710.5777 498.7253,738.4097 " fill="none" id="GetWorkersByProviderIdQuery-to-Workers" style="stroke:#181818;stroke-width:0.71;"/><polygon fill="#181818" points="498.7253,742.6697,501.5653,736.2797,498.7253,739.1197,495.8853,736.2797,498.7253,742.6697" style="stroke:#181818;stroke-width:0.71;"/></g><!--link WorkerCommandService to CreateWorkerCommand--><g id="link_WorkerCommandService_CreateWorkerCommand"><path codeLine="120" d="M760.5165,449.6172 C741.5027,494.8584 710.2306,569.2371 694.5254,606.6044 " fill="none" id="WorkerCommandService-to-CreateWorkerCommand" style="stroke:#181818;stroke-width:0.71;"/><polygon fill="#181818" points="692.8748,610.5316,697.9688,605.7411,694.2503,607.2589,692.7325,603.5404,692.8748,610.5316" style="stroke:#181818;stroke-width:0.71;"/></g><!--link WorkerCommandService to UpdateWorkerCommand--><g id="link_WorkerCommandService_UpdateWorkerCommand"><path codeLine="121" d="M785.3807,449.6172 C799.1973,494.8584 821.8732,569.09 833.2829,606.4573 " fill="none" id="WorkerCommandService-to-UpdateWorkerCommand" style="stroke:#181818;stroke-width:0.71;"/><polygon fill="#181818" points="834.5269,610.5316,835.377,603.5908,833.4902,607.1364,829.9446,605.2495,834.5269,610.5316" style="stroke:#181818;stroke-width:0.71;"/></g><!--link WorkersQueryService to GetAllWorkersQuery--><g id="link_WorkersQueryService_GetAllWorkersQuery"><path codeLine="122" d="M434.2715,456.0214 C408.8109,501.8945 370.4505,571.0084 350.6415,606.7072 " fill="none" id="WorkersQueryService-to-GetAllWorkersQuery" style="stroke:#181818;stroke-width:0.71;"/><polygon fill="#181818" points="348.5745,610.4322,354.1582,606.2227,350.297,607.3281,349.1916,603.4668,348.5745,610.4322" style="stroke:#181818;stroke-width:0.71;"/></g><!--link WorkersQueryService to GetWorkerByIdQuery--><g id="link_WorkersQueryService_GetWorkerByIdQuery"><path codeLine="123" d="M355.9727,455.9291 C325.4569,471.3432 293.3365,491.0244 267.9753,514.7597 C238.3612,542.4781 218.13,581.1982 206.7558,606.5594 " fill="none" id="WorkersQueryService-to-GetWorkerByIdQuery" style="stroke:#181818;stroke-width:0.71;"/><polygon fill="#181818" points="205.0125,610.4464,210.2187,605.7781,206.4652,607.2073,205.0361,603.4538,205.0125,610.4464" style="stroke:#181818;stroke-width:0.71;"/></g><!--link WorkersQueryService to GetWorkersByProviderIdQuery--><g id="link_WorkersQueryService_GetWorkersByProviderIdQuery"><path codeLine="124" d="M464.7163,456.0214 C473.6055,501.8945 486.9101,570.5512 493.8255,606.25 " fill="none" id="WorkersQueryService-to-GetWorkersByProviderIdQuery" style="stroke:#181818;stroke-width:0.71;"/><polygon fill="#181818" points="494.6357,610.4322,496.2086,603.6187,493.9606,606.947,490.6323,604.6989,494.6357,610.4322" style="stroke:#181818;stroke-width:0.71;"/></g><!--link WorkerCommandServiceImpl to WorkerRepository--><g id="link_WorkerCommandServiceImpl_WorkerRepository"><path codeLine="126" d="M2660.2564,451.7898 C2625.1469,497.2795 2568.8622,570.2107 2540.4409,607.0384 " fill="none" id="WorkerCommandServiceImpl-to-WorkerRepository" style="stroke:#181818;stroke-width:0.71;"/><polygon fill="#181818" points="2537.8382,610.4109,2543.9905,607.0873,2540.0071,607.6005,2539.4939,603.6171,2537.8382,610.4109" style="stroke:#181818;stroke-width:0.71;"/></g><!--link WorkerCommandServiceImpl to CreateWorkerCommand--><g id="link_WorkerCommandServiceImpl_CreateWorkerCommand"><path codeLine="127" d="M2635.9176,451.5839 C2601.7879,472.9123 2555.361,497.8404 2510.1553,509.0797 C2486.5975,514.9372 783.5347,503.2861 762.1353,514.7597 C724.3065,535.0515 703.0871,578.6585 692.5791,606.4266 " fill="none" id="WorkerCommandServiceImpl-to-CreateWorkerCommand" style="stroke:#181818;stroke-width:0.71;"/><polygon fill="#181818" points="691.0714,610.4109,695.9892,605.4397,692.3278,607.0907,690.6768,603.4294,691.0714,610.4109" style="stroke:#181818;stroke-width:0.71;"/></g><!--link WorkerCommandServiceImpl to UpdateWorkerCommand--><g id="link_WorkerCommandServiceImpl_UpdateWorkerCommand"><path codeLine="128" d="M2633.6882,451.6833 C2599.6437,472.3301 2554.1043,496.5056 2510.1553,509.0797 C2490.5167,514.7029 1220.2238,604.7501 911.8353,626.5471 " fill="none" id="WorkerCommandServiceImpl-to-UpdateWorkerCommand" style="stroke:#181818;stroke-width:0.71;"/><polygon fill="#181818" points="907.5859,626.8474,914.1602,629.2298,911.1271,626.5971,913.7598,623.564,907.5859,626.8474" style="stroke:#181818;stroke-width:0.71;"/></g><!--link WorkersQueryServiceImpl to WorkerRepository--><g id="link_WorkersQueryServiceImpl_WorkerRepository"><path codeLine="130" d="M2388.2057,458.0733 C2423.5708,504.0955 2475.8083,572.0727 2502.7954,607.1893 " fill="none" id="WorkersQueryServiceImpl-to-WorkerRepository" style="stroke:#181818;stroke-width:0.71;"/><polygon fill="#181818" points="2505.3912,610.5671,2503.7493,603.7699,2503.228,607.7523,2499.2456,607.231,2505.3912,610.5671" style="stroke:#181818;stroke-width:0.71;"/></g><!--link WorkersQueryServiceImpl to GetAllWorkersQuery--><g id="link_WorkersQueryServiceImpl_GetAllWorkersQuery"><path codeLine="131" d="M2212.1186,434.3167 C2031.8922,457.1645 1712.7117,494.3259 1438.0553,509.0797 C1423.7488,509.8465 418.8645,507.6455 406.4253,514.7597 C370.3715,535.3852 352.2656,578.7873 343.6817,606.4418 " fill="none" id="WorkersQueryServiceImpl-to-GetAllWorkersQuery" style="stroke:#181818;stroke-width:0.71;"/><polygon fill="#181818" points="342.4188,610.5103,347.0254,605.2494,343.4712,607.1199,341.6007,603.5656,342.4188,610.5103" style="stroke:#181818;stroke-width:0.71;"/></g><!--link WorkersQueryServiceImpl to GetWorkerByIdQuery--><g id="link_WorkersQueryServiceImpl_GetWorkerByIdQuery"><path codeLine="132" d="M2212.1186,434.3451 C2031.8922,457.2213 1712.7117,494.4182 1438.0553,509.0797 C1421.8318,509.9459 282.1398,506.7935 267.9753,514.7597 C231.4813,535.2929 212.6006,578.7506 203.5339,606.4335 " fill="none" id="WorkersQueryServiceImpl-to-GetWorkerByIdQuery" style="stroke:#181818;stroke-width:0.71;"/><polygon fill="#181818" points="202.208,610.4819,206.8958,605.2933,203.3129,607.1082,201.498,603.5254,202.208,610.4819" style="stroke:#181818;stroke-width:0.71;"/></g><!--link WorkersQueryServiceImpl to GetWorkersByProviderIdQuery--><g id="link_WorkersQueryServiceImpl_GetWorkersByProviderIdQuery"><path codeLine="133" d="M2212.3103,434.2315 C2032.1194,457.0154 1712.7969,494.1413 1438.0553,509.0797 C1426.5391,509.7045 617.9201,510.1163 607.3553,514.7597 C562.6182,534.4338 530.1698,578.8671 512.9381,606.8269 " fill="none" id="WorkersQueryServiceImpl-to-GetWorkersByProviderIdQuery" style="stroke:#181818;stroke-width:0.71;"/><polygon fill="#181818" points="510.703,610.4535,516.4733,606.5037,512.5656,607.4314,511.6379,603.5236,510.703,610.4535" style="stroke:#181818;stroke-width:0.71;"/></g><!--link WorkerController to WorkerCommandService--><g id="link_WorkerController_WorkerCommandService"><path codeLine="135" d="M1015.4278,242.1765 C993.148,252.2443 970.7049,263.4481 950.2853,275.4897 C898.9949,305.7357 849.3529,346.6615 815.2658,376.8507 " fill="none" id="WorkerController-to-WorkerCommandService" style="stroke:#181818;stroke-width:0.71;"/><polygon fill="#181818" points="812.0767,379.6751,818.7433,377.5645,814.7343,377.3214,814.9774,373.3124,812.0767,379.6751" style="stroke:#181818;stroke-width:0.71;"/></g><!--link WorkerController to WorkersQueryService--><g id="link_WorkerController_WorkersQueryService"><path codeLine="136" d="M1015.4917,203.1407 C879.5764,217.3833 682.4449,242.7445 613.0353,275.4897 C564.3719,298.4511 522.4687,338.2084 493.451,370.1939 " fill="none" id="WorkerController-to-WorkersQueryService" style="stroke:#181818;stroke-width:0.71;"/><polygon fill="#181818" points="490.5887,373.349,496.9856,370.5246,492.974,370.7198,492.7788,366.7081,490.5887,373.349" style="stroke:#181818;stroke-width:0.71;"/></g><!--link WorkerController to Workers--><g id="link_WorkerController_Workers"><path codeLine="137" d="M1015.5911,191.9369 C751.8545,196.488 196.3079,213.4286 136.6253,275.4897 C4.26,413.1445 4.7712,557.4662 125.9753,705.0397 C161.2552,747.9876 307.336,766.0652 405.9763,773.6267 " fill="none" id="WorkerController-to-Workers" style="stroke:#181818;stroke-width:0.71;"/><polygon fill="#181818" points="410.2238,773.9523,404.0696,770.6322,406.6842,773.681,403.6354,776.2956,410.2238,773.9523" style="stroke:#181818;stroke-width:0.71;"/></g><!--link WorkerController to CreateWorkerCommand--><g id="link_WorkerController_CreateWorkerCommand"><path codeLine="138" d="M1015.5698,193.5983 C779.5729,200.6983 318.5202,221.4019 269.3953,275.4897 C234.4988,313.9149 233.022,472.0532 269.3953,509.0797 C281.8984,521.8029 574.3119,506.9071 590.3153,514.7597 C631.5166,534.9734 658.5386,579.0305 672.5398,606.8057 " fill="none" id="WorkerController-to-CreateWorkerCommand" style="stroke:#181818;stroke-width:0.71;"/><polygon fill="#181818" points="674.4574,610.6097,674.1171,603.6253,672.8594,607.4397,669.045,606.1821,674.4574,610.6097" style="stroke:#181818;stroke-width:0.71;"/></g><!--link WorkerController to UpdateWorkerCommand--><g id="link_WorkerController_UpdateWorkerCommand"><path codeLine="139" d="M1015.4349,194.1592 C786.6303,202.0118 348.9295,223.6952 302.0553,275.4897 C267.2298,313.9788 265.5826,472.1455 302.0553,509.0797 C311.0368,518.1748 750.8889,508.6892 762.1353,514.7597 C800.028,535.2006 821.5331,578.7682 832.2328,606.4795 " fill="none" id="WorkerController-to-UpdateWorkerCommand" style="stroke:#181818;stroke-width:0.71;"/><polygon fill="#181818" points="833.7672,610.4535,834.1149,603.4695,832.4885,607.1418,828.8162,605.5154,833.7672,610.4535" style="stroke:#181818;stroke-width:0.71;"/></g><!--link WorkerController to GetAllWorkersQuery--><g id="link_WorkerController_GetAllWorkersQuery"><path codeLine="140" d="M1015.4136,192.8315 C768.6176,198.8168 272.2353,217.9371 219.6953,275.4897 C184.6994,313.8297 185.2035,470.2924 219.6953,509.0797 C226.8805,517.1524 258.9299,508.8596 267.9753,514.7597 C302.389,537.1886 320.5599,579.257 329.4846,606.3506 " fill="none" id="WorkerController-to-GetAllWorkersQuery" style="stroke:#181818;stroke-width:0.71;"/><polygon fill="#181818" points="330.8174,610.3967,331.5156,603.439,329.7067,607.0249,326.1208,605.216,330.8174,610.3967" style="stroke:#181818;stroke-width:0.71;"/></g><!--link WorkerController to GetWorkerByIdQuery--><g id="link_WorkerController_GetWorkerByIdQuery"><path codeLine="141" d="M1015.4278,192.3771 C761.8726,197.6453 242.4934,215.7006 187.7453,275.4897 C100.0603,371.2616 160.3443,545.5675 185.4286,606.5352 " fill="none" id="WorkerController-to-GetWorkerByIdQuery" style="stroke:#181818;stroke-width:0.71;"/><polygon fill="#181818" points="187.0495,610.4748,187.2446,603.4848,185.6988,607.1918,181.9918,605.646,187.0495,610.4748" style="stroke:#181818;stroke-width:0.71;"/></g><!--link WorkerController to GetWorkersByProviderIdQuery--><g id="link_WorkerController_GetWorkersByProviderIdQuery"><path codeLine="142" d="M1015.3852,193.1155 C772.693,199.5339 290.0847,219.2861 238.8653,275.4897 C221.3851,294.6739 220.8313,490.4209 238.8653,509.0797 C251.8157,522.4703 389.8042,506.3604 406.4253,514.7597 C447.0231,535.2787 473.5321,578.971 487.3132,606.661 " fill="none" id="WorkerController-to-GetWorkersByProviderIdQuery" style="stroke:#181818;stroke-width:0.71;"/><polygon fill="#181818" points="489.2113,610.4748,488.9067,603.4888,487.6296,607.2967,483.8217,606.0195,489.2113,610.4748" style="stroke:#181818;stroke-width:0.71;"/></g><!--link WorkerResourceFromEntityAssembler to WorkerResource--><g id="link_WorkerResourceFromEntityAssembler_WorkerResource"><path codeLine="144" d="M1974.0627,213.5422 C1951.8681,231.1431 1919.2862,254.7719 1887.4853,269.8097 C1727.3235,345.5383 1523.7624,388.1467 1430.7098,404.9808 " fill="none" id="WorkerResourceFromEntityAssembler-to-WorkerResource" style="stroke:#181818;stroke-width:0.71;"/><polygon fill="#181818" points="1426.5178,405.7392,1433.3113,407.3963,1430.0111,405.1072,1432.3002,401.807,1426.5178,405.7392" style="stroke:#181818;stroke-width:0.71;"/></g><!--link WorkerResourceFromEntityAssembler to Workers--><g id="link_WorkerResourceFromEntityAssembler_Workers"><path codeLine="145" d="M2103.8436,193.0303 C2318.3417,199.8392 2800.3252,221.0824 2849.5353,275.4897 C2919.1792,352.4821 2896.3243,416.4034 2849.5353,509.0797 C2783.4343,640.0179 2722.495,656.7384 2583.9953,705.0397 C2393.8431,771.3608 964.8474,778.1694 591.6217,778.8155 " fill="none" id="WorkerResourceFromEntityAssembler-to-Workers" style="stroke:#181818;stroke-width:0.71;"/><polygon fill="#181818" points="587.3617,778.8229,593.7566,781.6518,590.9117,778.8168,593.7468,775.9718,587.3617,778.8229" style="stroke:#181818;stroke-width:0.71;"/></g><!--link CreateWorkerCommandFromResourceAssembler to CreateWorkerCommand--><g id="link_CreateWorkerCommandFromResourceAssembler_CreateWorkerCommand"><path codeLine="146" d="M1425.5593,213.4641 C1394.7595,232.6909 1347.6723,258.6272 1302.4453,269.8097 C1293.7549,271.961 986.9497,269.7103 980.1053,275.4897 C899.3783,343.6355 1016.3011,440.3304 936.0853,509.0797 C921.4025,521.6609 779.0404,505.3664 762.1353,514.7597 C724.6118,535.6053 703.301,579.0149 692.6865,606.5984 " fill="none" id="CreateWorkerCommandFromResourceAssembler-to-CreateWorkerCommand" style="stroke:#181818;stroke-width:0.71;"/><polygon fill="#181818" points="691.1566,610.5742,696.102,605.6305,692.4315,607.261,690.801,603.5906,691.1566,610.5742" style="stroke:#181818;stroke-width:0.71;"/></g><!--link UpdateWorkerCommandFromResourceAssembler to UpdateWorkerCommand--><g id="link_UpdateWorkerCommandFromResourceAssembler_UpdateWorkerCommand"><path codeLine="147" d="M1713.8903,213.5351 C1686.2429,232.8045 1643.7423,258.7692 1602.0653,269.8097 C1586.0122,274.0626 1016.8904,264.719 1004.2453,275.4897 C924.1005,343.8059 1013.0422,415.6295 964.4853,509.0797 C942.3475,551.6939 903.4489,586.0493 874.5803,607.9102 " fill="none" id="UpdateWorkerCommandFromResourceAssembler-to-UpdateWorkerCommand" style="stroke:#181818;stroke-width:0.71;"/><polygon fill="#181818" points="871.1842,610.4819,877.9929,608.8884,874.0143,608.3388,874.5639,604.3602,871.1842,610.4819" style="stroke:#181818;stroke-width:0.71;"/></g><!--link CreateWorkerCommand to CreateWorkerCommand--><g id="link_CreateWorkerCommand_CreateWorkerCommand"><path codeLine="149" d="M1062.586,436.4467 C1041.286,459.2093 1003.8335,494.1981 963.0653,509.0797 C942.0919,516.7406 781.6887,503.9606 762.1353,514.7597 C724.5621,535.5201 703.2698,578.9641 692.6695,606.5689 " fill="none" id="CreateWorkerCommand-to-CreateWorkerCommand" style="stroke:#181818;stroke-width:0.71;"/><polygon fill="#181818" points="691.1424,610.5458,696.0843,605.5986,692.415,607.2317,690.7818,603.5624,691.1424,610.5458" style="stroke:#181818;stroke-width:0.71;"/></g><!--link UpdateWorkerCommand to UpdateWorkerCommand--><g id="link_UpdateWorkerCommand_UpdateWorkerCommand"><path codeLine="150" d="M1224.7145,436.4822 C1210.7346,457.4556 1186.8076,489.2636 1159.0253,509.0797 C1081.3442,564.4881 979.4487,597.6121 911.6082,615.3337 " fill="none" id="UpdateWorkerCommand-to-UpdateWorkerCommand" style="stroke:#181818;stroke-width:0.71;"/><polygon fill="#181818" points="907.4865,616.4104,914.3868,617.5432,910.9212,615.5132,912.9512,612.0476,907.4865,616.4104" style="stroke:#181818;stroke-width:0.71;"/></g><!--SRC=[nLTVJzim47_dKqIy38Jg3r2LJgLZKoK6NQkDnycafWJIEBDTfcxgTv_Jn8sTd1Cd9AmFb3ftzxlp_SdzOko_u3NnJkyfUo6Cdtf_JppvYTNv9xh1GQIEZKTVwOg4-XFZwMIzPcID1U55aUJZXvXpBmC5dYUVGOGtP9W9tSh_OIaU4p_0OV07Yu16IdvfdCAQyHCLzEUMXKffdXnyPs59V7zY_tMC-0SEj-JkuPdueZRc91nlDD9KnkFgQrWA5aJh6i-ACEOjk08MRxGLjBfBLr0j6KvubYHCwMQ3erL50gQCoAfCdSoafOyBubEsIjopXVKzNZNGixZtRKjOKDKINuYOX67M68dqpiavgPRgNErcgnPg_6etP_GrM15Mhv__sfUdmfAmry0lXwZNHdPzcQX4caM2i4Vi4x0-BkxYf11nECgS7NjFKZqaPr0k_VJxl84PABMWcRqrf3HNpX7T15oKt01o_olvsoGKe11iDcm-M2i2C5GiXRtvzfZ4SHZuXp42la8EjoJ3iBr5p4BXDKFLb9vjuj0sR5Bv1Oaf3mHbkw7tkt02wmt0uuxgiwCQTHsLUi7MtQnHtUzuiMziawvQfRDsgSeDs42pw95XBjZM5rj6m1wQIt3f6ebyObt6dcDSjv7a6IfEhuOEPveST7P1kB1wEQMHO3GCjJtKtkfAjBeIpP6Wgj4yhT8t2b-f6uUDwbc67zE8a-j8168tKZVFwPR9knvwlZOlpixRsTXgWyBHnaUfjZvMydqWdkQOoQrJffAtTMEjTvUZ4Qt5ZfPIKtd3dxMRTgVA8AzlX5JGQO7whylaX7EoUP0zu1hIPqOtwLKVLItjSs4g3Zr1oqPgKr5vJuaTPRFM7K0_yGamrS0f80cDd0BqspfLdgg7xm_UvUMbjxY-cKndTxVNo-JduNdM32Ybv-X0nL5EkP5YreF169RLoIegKEm-Z0Dyl0-O8uEt8oY6YA3UjMAL_N90WBgy2O8T8kEH2DY5EWb1ir_SaVgn3-nFRxqfjTiYa7HQhLVLHnymG94um9XyqufYhvDUC0grqYD6kLxC6j2O9r8i4nNe9BBIHjqFSmL7shgDv5gDxY5-qxqNxKgqRtoeTkiTC9WdiZ7CNdFGt8KsRTKpT5MtlGjqNHFcP10bn0zf10-LU1m0MrcYVIAL6LvNG4wlocv0dAT4nt1rBxHku1nRi7EmggRh2Qnfcns92wgdV-QKDUqSANF1JY_WR-cF7DEPPtRVDRaJphooWnUiFMUDw4thg7EyHcIdEi1_]--></g></svg>